<mxfile host="c4aac8bd-ad14-4e1a-9690-c24dea68f8a7" modified="2020-08-21T17:48:50.008Z" agent="5.0 (Windows NT 10.0; Win64; x64) AppleWebKit/537.36 (KHTML, like Gecko) Code/1.48.1 Chrome/78.0.3904.130 Electron/7.3.2 Safari/537.36" etag="5_q-VvQzZntKiRxLI3YB" version="13.1.3" pages="6">
    <diagram id="6hGFLwfOUW9BJ-s0fimq" name="visualized">
        <mxGraphModel dx="991" dy="575" grid="1" gridSize="10" guides="1" tooltips="1" connect="1" arrows="1" fold="1" page="1" pageScale="1" pageWidth="827" pageHeight="1169" math="0" shadow="0">
            <root>
                <mxCell id="0"/>
                <mxCell id="1" parent="0"/>
                <mxCell id="19" value="" style="rounded=0;whiteSpace=wrap;html=1;fillColor=#FFFFFF;strokeColor=none;" parent="1" vertex="1">
                    <mxGeometry x="100" y="140" width="480" height="260" as="geometry"/>
                </mxCell>
                <mxCell id="2" value="23" style="ellipse;whiteSpace=wrap;html=1;aspect=fixed;strokeColor=none;strokeWidth=2;fillColor=#000000;fontColor=#ffffff;" parent="1" vertex="1">
                    <mxGeometry x="320" y="160" width="40" height="40" as="geometry"/>
                </mxCell>
                <mxCell id="3" value="30" style="ellipse;whiteSpace=wrap;html=1;aspect=fixed;strokeColor=none;strokeWidth=2;fillColor=#000000;fontColor=#ffffff;" parent="1" vertex="1">
                    <mxGeometry x="460" y="220" width="40" height="40" as="geometry"/>
                </mxCell>
                <mxCell id="4" value="4" style="ellipse;whiteSpace=wrap;html=1;aspect=fixed;strokeColor=none;strokeWidth=2;fillColor=#000000;fontColor=#ffffff;" parent="1" vertex="1">
                    <mxGeometry x="120" y="280" width="40" height="40" as="geometry"/>
                </mxCell>
                <mxCell id="5" value="15" style="ellipse;whiteSpace=wrap;html=1;aspect=fixed;strokeColor=none;strokeWidth=2;fillColor=#000000;fontColor=#ffffff;" parent="1" vertex="1">
                    <mxGeometry x="240" y="280" width="40" height="40" as="geometry"/>
                </mxCell>
                <mxCell id="6" value="11" style="ellipse;whiteSpace=wrap;html=1;aspect=fixed;strokeColor=none;strokeWidth=2;fillColor=#FF0000;fontColor=#ffffff;" parent="1" vertex="1">
                    <mxGeometry x="190" y="340" width="40" height="40" as="geometry"/>
                </mxCell>
                <mxCell id="7" value="7" style="ellipse;whiteSpace=wrap;html=1;aspect=fixed;strokeColor=none;strokeWidth=2;fillColor=#FF0000;fontColor=#ffffff;" parent="1" vertex="1">
                    <mxGeometry x="180" y="220" width="40" height="40" as="geometry"/>
                </mxCell>
                <mxCell id="8" value="20" style="ellipse;whiteSpace=wrap;html=1;aspect=fixed;strokeColor=none;strokeWidth=2;fillColor=#FF0000;fontColor=#ffffff;" parent="1" vertex="1">
                    <mxGeometry x="290" y="340" width="40" height="40" as="geometry"/>
                </mxCell>
                <mxCell id="9" value="24" style="ellipse;whiteSpace=wrap;html=1;aspect=fixed;strokeColor=none;strokeWidth=2;fillColor=#FF0000;fontColor=#ffffff;" parent="1" vertex="1">
                    <mxGeometry x="400" y="280" width="40" height="40" as="geometry"/>
                </mxCell>
                <mxCell id="10" value="34" style="ellipse;whiteSpace=wrap;html=1;aspect=fixed;strokeColor=none;strokeWidth=2;fillColor=#FF0000;fontColor=#ffffff;" parent="1" vertex="1">
                    <mxGeometry x="520" y="280" width="40" height="40" as="geometry"/>
                </mxCell>
                <mxCell id="11" value="" style="endArrow=none;html=1;strokeColor=#000000;strokeWidth=2;" parent="1" source="7" target="2" edge="1">
                    <mxGeometry width="50" height="50" relative="1" as="geometry">
                        <mxPoint x="234.14213562373106" y="185.85786437626894" as="sourcePoint"/>
                        <mxPoint x="325.85786437626894" y="134.14213562373106" as="targetPoint"/>
                    </mxGeometry>
                </mxCell>
                <mxCell id="12" value="" style="endArrow=none;html=1;strokeColor=#000000;strokeWidth=2;" parent="1" source="2" target="3" edge="1">
                    <mxGeometry width="50" height="50" relative="1" as="geometry">
                        <mxPoint x="244.14213562373106" y="195.85786437626894" as="sourcePoint"/>
                        <mxPoint x="335.85786437626894" y="144.14213562373106" as="targetPoint"/>
                    </mxGeometry>
                </mxCell>
                <mxCell id="13" value="" style="endArrow=none;html=1;strokeColor=#000000;strokeWidth=2;" parent="1" source="5" target="8" edge="1">
                    <mxGeometry width="50" height="50" relative="1" as="geometry">
                        <mxPoint x="254.14213562373106" y="205.85786437626894" as="sourcePoint"/>
                        <mxPoint x="345.85786437626894" y="154.14213562373106" as="targetPoint"/>
                    </mxGeometry>
                </mxCell>
                <mxCell id="14" value="" style="endArrow=none;html=1;strokeColor=#000000;strokeWidth=2;" parent="1" source="6" target="5" edge="1">
                    <mxGeometry width="50" height="50" relative="1" as="geometry">
                        <mxPoint x="264.14213562373106" y="215.85786437626894" as="sourcePoint"/>
                        <mxPoint x="355.85786437626894" y="164.14213562373106" as="targetPoint"/>
                    </mxGeometry>
                </mxCell>
                <mxCell id="15" value="" style="endArrow=none;html=1;strokeColor=#000000;strokeWidth=2;" parent="1" source="4" target="7" edge="1">
                    <mxGeometry width="50" height="50" relative="1" as="geometry">
                        <mxPoint x="274.14213562373106" y="225.85786437626894" as="sourcePoint"/>
                        <mxPoint x="365.85786437626894" y="174.14213562373106" as="targetPoint"/>
                    </mxGeometry>
                </mxCell>
                <mxCell id="16" value="" style="endArrow=none;html=1;strokeColor=#000000;strokeWidth=2;" parent="1" source="5" target="7" edge="1">
                    <mxGeometry width="50" height="50" relative="1" as="geometry">
                        <mxPoint x="284.14213562373106" y="235.85786437626894" as="sourcePoint"/>
                        <mxPoint x="375.85786437626894" y="184.14213562373106" as="targetPoint"/>
                    </mxGeometry>
                </mxCell>
                <mxCell id="17" value="" style="endArrow=none;html=1;strokeColor=#000000;strokeWidth=2;" parent="1" source="10" target="3" edge="1">
                    <mxGeometry width="50" height="50" relative="1" as="geometry">
                        <mxPoint x="294.14213562373106" y="245.85786437626894" as="sourcePoint"/>
                        <mxPoint x="385.85786437626894" y="194.14213562373106" as="targetPoint"/>
                    </mxGeometry>
                </mxCell>
                <mxCell id="18" value="" style="endArrow=none;html=1;strokeColor=#000000;strokeWidth=2;" parent="1" source="9" target="3" edge="1">
                    <mxGeometry width="50" height="50" relative="1" as="geometry">
                        <mxPoint x="304.14213562373106" y="255.85786437626894" as="sourcePoint"/>
                        <mxPoint x="395.85786437626894" y="204.14213562373106" as="targetPoint"/>
                    </mxGeometry>
                </mxCell>
            </root>
        </mxGraphModel>
    </diagram>
    <diagram name="theory" id="3LFVbUVEpeq9X2acvxs5">
        <mxGraphModel dx="991" dy="575" grid="1" gridSize="10" guides="1" tooltips="1" connect="1" arrows="1" fold="1" page="1" pageScale="1" pageWidth="827" pageHeight="1169" math="0" shadow="0">
            <root>
                <mxCell id="3BDkFtxunHl_aMRSUOnI-0"/>
                <mxCell id="3BDkFtxunHl_aMRSUOnI-1" parent="3BDkFtxunHl_aMRSUOnI-0"/>
                <mxCell id="3BDkFtxunHl_aMRSUOnI-2" value="" style="rounded=0;whiteSpace=wrap;html=1;fillColor=#FFFFFF;strokeColor=none;" parent="3BDkFtxunHl_aMRSUOnI-1" vertex="1">
                    <mxGeometry x="30" y="140" width="670" height="320" as="geometry"/>
                </mxCell>
                <mxCell id="3BDkFtxunHl_aMRSUOnI-3" value="23" style="ellipse;whiteSpace=wrap;html=1;aspect=fixed;strokeColor=none;strokeWidth=2;fillColor=#000000;fontColor=#ffffff;" parent="3BDkFtxunHl_aMRSUOnI-1" vertex="1">
                    <mxGeometry x="360" y="160" width="40" height="40" as="geometry"/>
                </mxCell>
                <mxCell id="3BDkFtxunHl_aMRSUOnI-4" value="30" style="ellipse;whiteSpace=wrap;html=1;aspect=fixed;strokeColor=none;strokeWidth=2;fillColor=#000000;fontColor=#ffffff;" parent="3BDkFtxunHl_aMRSUOnI-1" vertex="1">
                    <mxGeometry x="540" y="220" width="40" height="40" as="geometry"/>
                </mxCell>
                <mxCell id="3BDkFtxunHl_aMRSUOnI-5" value="4" style="ellipse;whiteSpace=wrap;html=1;aspect=fixed;strokeColor=none;strokeWidth=2;fillColor=#000000;fontColor=#ffffff;" parent="3BDkFtxunHl_aMRSUOnI-1" vertex="1">
                    <mxGeometry x="80" y="280" width="40" height="40" as="geometry"/>
                </mxCell>
                <mxCell id="3BDkFtxunHl_aMRSUOnI-6" value="15" style="ellipse;whiteSpace=wrap;html=1;aspect=fixed;strokeColor=none;strokeWidth=2;fillColor=#000000;fontColor=#ffffff;" parent="3BDkFtxunHl_aMRSUOnI-1" vertex="1">
                    <mxGeometry x="280" y="280" width="40" height="40" as="geometry"/>
                </mxCell>
                <mxCell id="3BDkFtxunHl_aMRSUOnI-7" value="11" style="ellipse;whiteSpace=wrap;html=1;aspect=fixed;strokeColor=none;strokeWidth=2;fillColor=#FF0000;fontColor=#ffffff;" parent="3BDkFtxunHl_aMRSUOnI-1" vertex="1">
                    <mxGeometry x="210" y="340" width="40" height="40" as="geometry"/>
                </mxCell>
                <mxCell id="3BDkFtxunHl_aMRSUOnI-8" value="7" style="ellipse;whiteSpace=wrap;html=1;aspect=fixed;strokeColor=none;strokeWidth=2;fillColor=#FF0000;fontColor=#ffffff;" parent="3BDkFtxunHl_aMRSUOnI-1" vertex="1">
                    <mxGeometry x="180" y="220" width="40" height="40" as="geometry"/>
                </mxCell>
                <mxCell id="3BDkFtxunHl_aMRSUOnI-9" value="20" style="ellipse;whiteSpace=wrap;html=1;aspect=fixed;strokeColor=none;strokeWidth=2;fillColor=#FF0000;fontColor=#ffffff;" parent="3BDkFtxunHl_aMRSUOnI-1" vertex="1">
                    <mxGeometry x="350" y="340" width="40" height="40" as="geometry"/>
                </mxCell>
                <mxCell id="3BDkFtxunHl_aMRSUOnI-10" value="24" style="ellipse;whiteSpace=wrap;html=1;aspect=fixed;strokeColor=none;strokeWidth=2;fillColor=#FF0000;fontColor=#ffffff;" parent="3BDkFtxunHl_aMRSUOnI-1" vertex="1">
                    <mxGeometry x="470" y="280" width="40" height="40" as="geometry"/>
                </mxCell>
                <mxCell id="3BDkFtxunHl_aMRSUOnI-11" value="34" style="ellipse;whiteSpace=wrap;html=1;aspect=fixed;strokeColor=none;strokeWidth=2;fillColor=#FF0000;fontColor=#ffffff;" parent="3BDkFtxunHl_aMRSUOnI-1" vertex="1">
                    <mxGeometry x="610" y="280" width="40" height="40" as="geometry"/>
                </mxCell>
                <mxCell id="3BDkFtxunHl_aMRSUOnI-12" value="" style="endArrow=none;html=1;strokeColor=#000000;strokeWidth=2;" parent="3BDkFtxunHl_aMRSUOnI-1" source="3BDkFtxunHl_aMRSUOnI-8" target="3BDkFtxunHl_aMRSUOnI-3" edge="1">
                    <mxGeometry width="50" height="50" relative="1" as="geometry">
                        <mxPoint x="274.14213562373106" y="185.85786437626894" as="sourcePoint"/>
                        <mxPoint x="365.85786437626894" y="134.14213562373106" as="targetPoint"/>
                    </mxGeometry>
                </mxCell>
                <mxCell id="3BDkFtxunHl_aMRSUOnI-13" value="" style="endArrow=none;html=1;strokeColor=#000000;strokeWidth=2;" parent="3BDkFtxunHl_aMRSUOnI-1" source="3BDkFtxunHl_aMRSUOnI-3" target="3BDkFtxunHl_aMRSUOnI-4" edge="1">
                    <mxGeometry width="50" height="50" relative="1" as="geometry">
                        <mxPoint x="284.14213562373106" y="195.85786437626894" as="sourcePoint"/>
                        <mxPoint x="375.85786437626894" y="144.14213562373106" as="targetPoint"/>
                    </mxGeometry>
                </mxCell>
                <mxCell id="3BDkFtxunHl_aMRSUOnI-14" value="" style="endArrow=none;html=1;strokeColor=#000000;strokeWidth=2;" parent="3BDkFtxunHl_aMRSUOnI-1" source="3BDkFtxunHl_aMRSUOnI-6" target="3BDkFtxunHl_aMRSUOnI-9" edge="1">
                    <mxGeometry width="50" height="50" relative="1" as="geometry">
                        <mxPoint x="294.14213562373106" y="205.85786437626894" as="sourcePoint"/>
                        <mxPoint x="385.85786437626894" y="154.14213562373106" as="targetPoint"/>
                    </mxGeometry>
                </mxCell>
                <mxCell id="3BDkFtxunHl_aMRSUOnI-15" value="" style="endArrow=none;html=1;strokeColor=#000000;strokeWidth=2;" parent="3BDkFtxunHl_aMRSUOnI-1" source="3BDkFtxunHl_aMRSUOnI-7" target="3BDkFtxunHl_aMRSUOnI-6" edge="1">
                    <mxGeometry width="50" height="50" relative="1" as="geometry">
                        <mxPoint x="304.14213562373106" y="215.85786437626894" as="sourcePoint"/>
                        <mxPoint x="395.85786437626894" y="164.14213562373106" as="targetPoint"/>
                    </mxGeometry>
                </mxCell>
                <mxCell id="3BDkFtxunHl_aMRSUOnI-16" value="" style="endArrow=none;html=1;strokeColor=#000000;strokeWidth=2;" parent="3BDkFtxunHl_aMRSUOnI-1" source="3BDkFtxunHl_aMRSUOnI-5" target="3BDkFtxunHl_aMRSUOnI-8" edge="1">
                    <mxGeometry width="50" height="50" relative="1" as="geometry">
                        <mxPoint x="314.14213562373106" y="225.85786437626894" as="sourcePoint"/>
                        <mxPoint x="405.85786437626894" y="174.14213562373106" as="targetPoint"/>
                    </mxGeometry>
                </mxCell>
                <mxCell id="3BDkFtxunHl_aMRSUOnI-17" value="" style="endArrow=none;html=1;strokeColor=#000000;strokeWidth=2;" parent="3BDkFtxunHl_aMRSUOnI-1" source="3BDkFtxunHl_aMRSUOnI-6" target="3BDkFtxunHl_aMRSUOnI-8" edge="1">
                    <mxGeometry width="50" height="50" relative="1" as="geometry">
                        <mxPoint x="324.14213562373106" y="235.85786437626894" as="sourcePoint"/>
                        <mxPoint x="415.85786437626894" y="184.14213562373106" as="targetPoint"/>
                    </mxGeometry>
                </mxCell>
                <mxCell id="3BDkFtxunHl_aMRSUOnI-18" value="" style="endArrow=none;html=1;strokeColor=#000000;strokeWidth=2;" parent="3BDkFtxunHl_aMRSUOnI-1" source="3BDkFtxunHl_aMRSUOnI-11" target="3BDkFtxunHl_aMRSUOnI-4" edge="1">
                    <mxGeometry width="50" height="50" relative="1" as="geometry">
                        <mxPoint x="334.14213562373106" y="245.85786437626894" as="sourcePoint"/>
                        <mxPoint x="425.85786437626894" y="194.14213562373106" as="targetPoint"/>
                    </mxGeometry>
                </mxCell>
                <mxCell id="3BDkFtxunHl_aMRSUOnI-19" value="" style="endArrow=none;html=1;strokeColor=#000000;strokeWidth=2;" parent="3BDkFtxunHl_aMRSUOnI-1" source="3BDkFtxunHl_aMRSUOnI-10" target="3BDkFtxunHl_aMRSUOnI-4" edge="1">
                    <mxGeometry width="50" height="50" relative="1" as="geometry">
                        <mxPoint x="344.14213562373106" y="255.85786437626894" as="sourcePoint"/>
                        <mxPoint x="435.85786437626894" y="204.14213562373106" as="targetPoint"/>
                    </mxGeometry>
                </mxCell>
                <mxCell id="9xHRrJsKa_Q5Lx0Kp_sO-1" value="NIL" style="ellipse;whiteSpace=wrap;html=1;aspect=fixed;strokeColor=none;strokeWidth=2;fillColor=#000000;fontColor=#ffffff;" parent="3BDkFtxunHl_aMRSUOnI-1" vertex="1">
                    <mxGeometry x="50" y="345" width="30" height="30" as="geometry"/>
                </mxCell>
                <mxCell id="9xHRrJsKa_Q5Lx0Kp_sO-3" value="NIL" style="ellipse;whiteSpace=wrap;html=1;aspect=fixed;strokeColor=none;strokeWidth=2;fillColor=#000000;fontColor=#ffffff;" parent="3BDkFtxunHl_aMRSUOnI-1" vertex="1">
                    <mxGeometry x="120" y="345" width="30" height="30" as="geometry"/>
                </mxCell>
                <mxCell id="9xHRrJsKa_Q5Lx0Kp_sO-4" value="NIL" style="ellipse;whiteSpace=wrap;html=1;aspect=fixed;strokeColor=none;strokeWidth=2;fillColor=#000000;fontColor=#ffffff;" parent="3BDkFtxunHl_aMRSUOnI-1" vertex="1">
                    <mxGeometry x="180" y="400" width="30" height="30" as="geometry"/>
                </mxCell>
                <mxCell id="9xHRrJsKa_Q5Lx0Kp_sO-5" value="NIL" style="ellipse;whiteSpace=wrap;html=1;aspect=fixed;strokeColor=none;strokeWidth=2;fillColor=#000000;fontColor=#ffffff;" parent="3BDkFtxunHl_aMRSUOnI-1" vertex="1">
                    <mxGeometry x="250" y="400" width="30" height="30" as="geometry"/>
                </mxCell>
                <mxCell id="9xHRrJsKa_Q5Lx0Kp_sO-6" value="NIL" style="ellipse;whiteSpace=wrap;html=1;aspect=fixed;strokeColor=none;strokeWidth=2;fillColor=#000000;fontColor=#ffffff;" parent="3BDkFtxunHl_aMRSUOnI-1" vertex="1">
                    <mxGeometry x="320" y="400" width="30" height="30" as="geometry"/>
                </mxCell>
                <mxCell id="9xHRrJsKa_Q5Lx0Kp_sO-7" value="NIL" style="ellipse;whiteSpace=wrap;html=1;aspect=fixed;strokeColor=none;strokeWidth=2;fillColor=#000000;fontColor=#ffffff;" parent="3BDkFtxunHl_aMRSUOnI-1" vertex="1">
                    <mxGeometry x="390" y="400" width="30" height="30" as="geometry"/>
                </mxCell>
                <mxCell id="9xHRrJsKa_Q5Lx0Kp_sO-8" value="NIL" style="ellipse;whiteSpace=wrap;html=1;aspect=fixed;strokeColor=none;strokeWidth=2;fillColor=#000000;fontColor=#ffffff;" parent="3BDkFtxunHl_aMRSUOnI-1" vertex="1">
                    <mxGeometry x="440" y="345" width="30" height="30" as="geometry"/>
                </mxCell>
                <mxCell id="9xHRrJsKa_Q5Lx0Kp_sO-9" value="NIL" style="ellipse;whiteSpace=wrap;html=1;aspect=fixed;strokeColor=none;strokeWidth=2;fillColor=#000000;fontColor=#ffffff;" parent="3BDkFtxunHl_aMRSUOnI-1" vertex="1">
                    <mxGeometry x="510" y="345" width="30" height="30" as="geometry"/>
                </mxCell>
                <mxCell id="9xHRrJsKa_Q5Lx0Kp_sO-10" value="NIL" style="ellipse;whiteSpace=wrap;html=1;aspect=fixed;strokeColor=none;strokeWidth=2;fillColor=#000000;fontColor=#ffffff;" parent="3BDkFtxunHl_aMRSUOnI-1" vertex="1">
                    <mxGeometry x="580" y="345" width="30" height="30" as="geometry"/>
                </mxCell>
                <mxCell id="9xHRrJsKa_Q5Lx0Kp_sO-11" value="NIL" style="ellipse;whiteSpace=wrap;html=1;aspect=fixed;strokeColor=none;strokeWidth=2;fillColor=#000000;fontColor=#ffffff;" parent="3BDkFtxunHl_aMRSUOnI-1" vertex="1">
                    <mxGeometry x="650" y="345" width="30" height="30" as="geometry"/>
                </mxCell>
                <mxCell id="9xHRrJsKa_Q5Lx0Kp_sO-13" value="" style="endArrow=none;html=1;strokeColor=#000000;strokeWidth=2;" parent="3BDkFtxunHl_aMRSUOnI-1" source="9xHRrJsKa_Q5Lx0Kp_sO-1" target="3BDkFtxunHl_aMRSUOnI-5" edge="1">
                    <mxGeometry width="50" height="50" relative="1" as="geometry">
                        <mxPoint x="127.16830466094689" y="299.740891117239" as="sourcePoint"/>
                        <mxPoint x="192.8501414857492" y="260.28991510855053" as="targetPoint"/>
                    </mxGeometry>
                </mxCell>
                <mxCell id="9xHRrJsKa_Q5Lx0Kp_sO-14" value="" style="endArrow=none;html=1;strokeColor=#000000;strokeWidth=2;" parent="3BDkFtxunHl_aMRSUOnI-1" source="3BDkFtxunHl_aMRSUOnI-5" target="9xHRrJsKa_Q5Lx0Kp_sO-3" edge="1">
                    <mxGeometry width="50" height="50" relative="1" as="geometry">
                        <mxPoint x="137.1683046609469" y="309.740891117239" as="sourcePoint"/>
                        <mxPoint x="202.8501414857492" y="270.28991510855053" as="targetPoint"/>
                    </mxGeometry>
                </mxCell>
                <mxCell id="9xHRrJsKa_Q5Lx0Kp_sO-15" value="" style="endArrow=none;html=1;strokeColor=#000000;strokeWidth=2;" parent="3BDkFtxunHl_aMRSUOnI-1" source="9xHRrJsKa_Q5Lx0Kp_sO-4" target="3BDkFtxunHl_aMRSUOnI-7" edge="1">
                    <mxGeometry width="50" height="50" relative="1" as="geometry">
                        <mxPoint x="147.1683046609469" y="319.740891117239" as="sourcePoint"/>
                        <mxPoint x="212.8501414857492" y="280.28991510855053" as="targetPoint"/>
                    </mxGeometry>
                </mxCell>
                <mxCell id="9xHRrJsKa_Q5Lx0Kp_sO-16" value="" style="endArrow=none;html=1;strokeColor=#000000;strokeWidth=2;" parent="3BDkFtxunHl_aMRSUOnI-1" source="9xHRrJsKa_Q5Lx0Kp_sO-5" target="3BDkFtxunHl_aMRSUOnI-7" edge="1">
                    <mxGeometry width="50" height="50" relative="1" as="geometry">
                        <mxPoint x="157.1683046609469" y="329.740891117239" as="sourcePoint"/>
                        <mxPoint x="222.8501414857492" y="290.28991510855053" as="targetPoint"/>
                    </mxGeometry>
                </mxCell>
                <mxCell id="9xHRrJsKa_Q5Lx0Kp_sO-17" value="" style="endArrow=none;html=1;strokeColor=#000000;strokeWidth=2;" parent="3BDkFtxunHl_aMRSUOnI-1" source="9xHRrJsKa_Q5Lx0Kp_sO-6" target="3BDkFtxunHl_aMRSUOnI-9" edge="1">
                    <mxGeometry width="50" height="50" relative="1" as="geometry">
                        <mxPoint x="167.1683046609469" y="339.740891117239" as="sourcePoint"/>
                        <mxPoint x="232.8501414857492" y="300.28991510855053" as="targetPoint"/>
                    </mxGeometry>
                </mxCell>
                <mxCell id="9xHRrJsKa_Q5Lx0Kp_sO-18" value="" style="endArrow=none;html=1;strokeColor=#000000;strokeWidth=2;" parent="3BDkFtxunHl_aMRSUOnI-1" source="9xHRrJsKa_Q5Lx0Kp_sO-7" target="3BDkFtxunHl_aMRSUOnI-9" edge="1">
                    <mxGeometry width="50" height="50" relative="1" as="geometry">
                        <mxPoint x="177.1683046609469" y="349.740891117239" as="sourcePoint"/>
                        <mxPoint x="242.8501414857492" y="310.28991510855053" as="targetPoint"/>
                    </mxGeometry>
                </mxCell>
                <mxCell id="9xHRrJsKa_Q5Lx0Kp_sO-19" value="" style="endArrow=none;html=1;strokeColor=#000000;strokeWidth=2;" parent="3BDkFtxunHl_aMRSUOnI-1" source="9xHRrJsKa_Q5Lx0Kp_sO-8" target="3BDkFtxunHl_aMRSUOnI-10" edge="1">
                    <mxGeometry width="50" height="50" relative="1" as="geometry">
                        <mxPoint x="187.1683046609469" y="359.740891117239" as="sourcePoint"/>
                        <mxPoint x="252.8501414857492" y="320.28991510855053" as="targetPoint"/>
                    </mxGeometry>
                </mxCell>
                <mxCell id="9xHRrJsKa_Q5Lx0Kp_sO-20" value="" style="endArrow=none;html=1;strokeColor=#000000;strokeWidth=2;" parent="3BDkFtxunHl_aMRSUOnI-1" source="9xHRrJsKa_Q5Lx0Kp_sO-9" target="3BDkFtxunHl_aMRSUOnI-10" edge="1">
                    <mxGeometry width="50" height="50" relative="1" as="geometry">
                        <mxPoint x="197.1683046609469" y="369.740891117239" as="sourcePoint"/>
                        <mxPoint x="262.8501414857492" y="330.28991510855053" as="targetPoint"/>
                    </mxGeometry>
                </mxCell>
                <mxCell id="9xHRrJsKa_Q5Lx0Kp_sO-21" value="" style="endArrow=none;html=1;strokeColor=#000000;strokeWidth=2;" parent="3BDkFtxunHl_aMRSUOnI-1" source="9xHRrJsKa_Q5Lx0Kp_sO-10" target="3BDkFtxunHl_aMRSUOnI-11" edge="1">
                    <mxGeometry width="50" height="50" relative="1" as="geometry">
                        <mxPoint x="207.1683046609469" y="379.740891117239" as="sourcePoint"/>
                        <mxPoint x="272.8501414857492" y="340.28991510855053" as="targetPoint"/>
                    </mxGeometry>
                </mxCell>
                <mxCell id="9xHRrJsKa_Q5Lx0Kp_sO-22" value="" style="endArrow=none;html=1;strokeColor=#000000;strokeWidth=2;" parent="3BDkFtxunHl_aMRSUOnI-1" source="9xHRrJsKa_Q5Lx0Kp_sO-11" target="3BDkFtxunHl_aMRSUOnI-11" edge="1">
                    <mxGeometry width="50" height="50" relative="1" as="geometry">
                        <mxPoint x="217.1683046609469" y="389.740891117239" as="sourcePoint"/>
                        <mxPoint x="282.8501414857492" y="350.28991510855053" as="targetPoint"/>
                    </mxGeometry>
                </mxCell>
            </root>
        </mxGraphModel>
    </diagram>
    <diagram name="black_height" id="te1m3dkhntmDkyzR2aWJ">
        <mxGraphModel dx="991" dy="575" grid="1" gridSize="10" guides="1" tooltips="1" connect="1" arrows="1" fold="1" page="1" pageScale="1" pageWidth="827" pageHeight="1169" math="0" shadow="0">
            <root>
                <mxCell id="plHjzQY8NiuDGEiY0c5O-0"/>
                <mxCell id="plHjzQY8NiuDGEiY0c5O-1" parent="plHjzQY8NiuDGEiY0c5O-0"/>
                <mxCell id="plHjzQY8NiuDGEiY0c5O-2" value="" style="rounded=0;whiteSpace=wrap;html=1;fillColor=#FFFFFF;strokeColor=none;" parent="plHjzQY8NiuDGEiY0c5O-1" vertex="1">
                    <mxGeometry x="30" y="140" width="690" height="320" as="geometry"/>
                </mxCell>
                <mxCell id="plHjzQY8NiuDGEiY0c5O-3" value="23" style="ellipse;whiteSpace=wrap;html=1;aspect=fixed;strokeColor=none;strokeWidth=2;fillColor=#000000;fontColor=#ffffff;" parent="plHjzQY8NiuDGEiY0c5O-1" vertex="1">
                    <mxGeometry x="360" y="160" width="40" height="40" as="geometry"/>
                </mxCell>
                <mxCell id="plHjzQY8NiuDGEiY0c5O-4" value="30" style="ellipse;whiteSpace=wrap;html=1;aspect=fixed;strokeColor=none;strokeWidth=2;fillColor=#000000;fontColor=#ffffff;" parent="plHjzQY8NiuDGEiY0c5O-1" vertex="1">
                    <mxGeometry x="540" y="220" width="40" height="40" as="geometry"/>
                </mxCell>
                <mxCell id="plHjzQY8NiuDGEiY0c5O-5" value="4" style="ellipse;whiteSpace=wrap;html=1;aspect=fixed;strokeColor=none;strokeWidth=2;fillColor=#000000;fontColor=#ffffff;" parent="plHjzQY8NiuDGEiY0c5O-1" vertex="1">
                    <mxGeometry x="80" y="280" width="40" height="40" as="geometry"/>
                </mxCell>
                <mxCell id="plHjzQY8NiuDGEiY0c5O-6" value="15" style="ellipse;whiteSpace=wrap;html=1;aspect=fixed;strokeColor=none;strokeWidth=2;fillColor=#000000;fontColor=#ffffff;" parent="plHjzQY8NiuDGEiY0c5O-1" vertex="1">
                    <mxGeometry x="280" y="280" width="40" height="40" as="geometry"/>
                </mxCell>
                <mxCell id="plHjzQY8NiuDGEiY0c5O-7" value="11" style="ellipse;whiteSpace=wrap;html=1;aspect=fixed;strokeColor=none;strokeWidth=2;fillColor=#FF0000;fontColor=#ffffff;" parent="plHjzQY8NiuDGEiY0c5O-1" vertex="1">
                    <mxGeometry x="210" y="340" width="40" height="40" as="geometry"/>
                </mxCell>
                <mxCell id="plHjzQY8NiuDGEiY0c5O-8" value="7" style="ellipse;whiteSpace=wrap;html=1;aspect=fixed;strokeColor=none;strokeWidth=2;fillColor=#FF0000;fontColor=#ffffff;" parent="plHjzQY8NiuDGEiY0c5O-1" vertex="1">
                    <mxGeometry x="180" y="220" width="40" height="40" as="geometry"/>
                </mxCell>
                <mxCell id="plHjzQY8NiuDGEiY0c5O-9" value="20" style="ellipse;whiteSpace=wrap;html=1;aspect=fixed;strokeColor=none;strokeWidth=2;fillColor=#FF0000;fontColor=#ffffff;" parent="plHjzQY8NiuDGEiY0c5O-1" vertex="1">
                    <mxGeometry x="350" y="340" width="40" height="40" as="geometry"/>
                </mxCell>
                <mxCell id="plHjzQY8NiuDGEiY0c5O-10" value="24" style="ellipse;whiteSpace=wrap;html=1;aspect=fixed;strokeColor=none;strokeWidth=2;fillColor=#FF0000;fontColor=#ffffff;" parent="plHjzQY8NiuDGEiY0c5O-1" vertex="1">
                    <mxGeometry x="470" y="280" width="40" height="40" as="geometry"/>
                </mxCell>
                <mxCell id="plHjzQY8NiuDGEiY0c5O-11" value="34" style="ellipse;whiteSpace=wrap;html=1;aspect=fixed;strokeColor=none;strokeWidth=2;fillColor=#FF0000;fontColor=#ffffff;" parent="plHjzQY8NiuDGEiY0c5O-1" vertex="1">
                    <mxGeometry x="610" y="280" width="40" height="40" as="geometry"/>
                </mxCell>
                <mxCell id="plHjzQY8NiuDGEiY0c5O-12" value="" style="endArrow=none;html=1;strokeColor=#000000;strokeWidth=2;" parent="plHjzQY8NiuDGEiY0c5O-1" source="plHjzQY8NiuDGEiY0c5O-8" target="plHjzQY8NiuDGEiY0c5O-3" edge="1">
                    <mxGeometry width="50" height="50" relative="1" as="geometry">
                        <mxPoint x="274.14213562373106" y="185.85786437626894" as="sourcePoint"/>
                        <mxPoint x="365.85786437626894" y="134.14213562373106" as="targetPoint"/>
                    </mxGeometry>
                </mxCell>
                <mxCell id="plHjzQY8NiuDGEiY0c5O-13" value="" style="endArrow=none;html=1;strokeColor=#000000;strokeWidth=2;" parent="plHjzQY8NiuDGEiY0c5O-1" source="plHjzQY8NiuDGEiY0c5O-3" target="plHjzQY8NiuDGEiY0c5O-4" edge="1">
                    <mxGeometry width="50" height="50" relative="1" as="geometry">
                        <mxPoint x="284.14213562373106" y="195.85786437626894" as="sourcePoint"/>
                        <mxPoint x="375.85786437626894" y="144.14213562373106" as="targetPoint"/>
                    </mxGeometry>
                </mxCell>
                <mxCell id="plHjzQY8NiuDGEiY0c5O-14" value="" style="endArrow=none;html=1;strokeColor=#000000;strokeWidth=2;" parent="plHjzQY8NiuDGEiY0c5O-1" source="plHjzQY8NiuDGEiY0c5O-6" target="plHjzQY8NiuDGEiY0c5O-9" edge="1">
                    <mxGeometry width="50" height="50" relative="1" as="geometry">
                        <mxPoint x="294.14213562373106" y="205.85786437626894" as="sourcePoint"/>
                        <mxPoint x="385.85786437626894" y="154.14213562373106" as="targetPoint"/>
                    </mxGeometry>
                </mxCell>
                <mxCell id="plHjzQY8NiuDGEiY0c5O-15" value="" style="endArrow=none;html=1;strokeColor=#000000;strokeWidth=2;" parent="plHjzQY8NiuDGEiY0c5O-1" source="plHjzQY8NiuDGEiY0c5O-7" target="plHjzQY8NiuDGEiY0c5O-6" edge="1">
                    <mxGeometry width="50" height="50" relative="1" as="geometry">
                        <mxPoint x="304.14213562373106" y="215.85786437626894" as="sourcePoint"/>
                        <mxPoint x="395.85786437626894" y="164.14213562373106" as="targetPoint"/>
                    </mxGeometry>
                </mxCell>
                <mxCell id="plHjzQY8NiuDGEiY0c5O-16" value="" style="endArrow=none;html=1;strokeColor=#000000;strokeWidth=2;" parent="plHjzQY8NiuDGEiY0c5O-1" source="plHjzQY8NiuDGEiY0c5O-5" target="plHjzQY8NiuDGEiY0c5O-8" edge="1">
                    <mxGeometry width="50" height="50" relative="1" as="geometry">
                        <mxPoint x="314.14213562373106" y="225.85786437626894" as="sourcePoint"/>
                        <mxPoint x="405.85786437626894" y="174.14213562373106" as="targetPoint"/>
                    </mxGeometry>
                </mxCell>
                <mxCell id="plHjzQY8NiuDGEiY0c5O-17" value="" style="endArrow=none;html=1;strokeColor=#000000;strokeWidth=2;" parent="plHjzQY8NiuDGEiY0c5O-1" source="plHjzQY8NiuDGEiY0c5O-6" target="plHjzQY8NiuDGEiY0c5O-8" edge="1">
                    <mxGeometry width="50" height="50" relative="1" as="geometry">
                        <mxPoint x="324.14213562373106" y="235.85786437626894" as="sourcePoint"/>
                        <mxPoint x="415.85786437626894" y="184.14213562373106" as="targetPoint"/>
                    </mxGeometry>
                </mxCell>
                <mxCell id="plHjzQY8NiuDGEiY0c5O-18" value="" style="endArrow=none;html=1;strokeColor=#000000;strokeWidth=2;" parent="plHjzQY8NiuDGEiY0c5O-1" source="plHjzQY8NiuDGEiY0c5O-11" target="plHjzQY8NiuDGEiY0c5O-4" edge="1">
                    <mxGeometry width="50" height="50" relative="1" as="geometry">
                        <mxPoint x="334.14213562373106" y="245.85786437626894" as="sourcePoint"/>
                        <mxPoint x="425.85786437626894" y="194.14213562373106" as="targetPoint"/>
                    </mxGeometry>
                </mxCell>
                <mxCell id="plHjzQY8NiuDGEiY0c5O-19" value="" style="endArrow=none;html=1;strokeColor=#000000;strokeWidth=2;" parent="plHjzQY8NiuDGEiY0c5O-1" source="plHjzQY8NiuDGEiY0c5O-10" target="plHjzQY8NiuDGEiY0c5O-4" edge="1">
                    <mxGeometry width="50" height="50" relative="1" as="geometry">
                        <mxPoint x="344.14213562373106" y="255.85786437626894" as="sourcePoint"/>
                        <mxPoint x="435.85786437626894" y="204.14213562373106" as="targetPoint"/>
                    </mxGeometry>
                </mxCell>
                <mxCell id="plHjzQY8NiuDGEiY0c5O-20" value="NIL" style="ellipse;whiteSpace=wrap;html=1;aspect=fixed;strokeColor=none;strokeWidth=2;fillColor=#000000;fontColor=#ffffff;" parent="plHjzQY8NiuDGEiY0c5O-1" vertex="1">
                    <mxGeometry x="50" y="345" width="30" height="30" as="geometry"/>
                </mxCell>
                <mxCell id="plHjzQY8NiuDGEiY0c5O-21" value="NIL" style="ellipse;whiteSpace=wrap;html=1;aspect=fixed;strokeColor=none;strokeWidth=2;fillColor=#000000;fontColor=#ffffff;" parent="plHjzQY8NiuDGEiY0c5O-1" vertex="1">
                    <mxGeometry x="120" y="345" width="30" height="30" as="geometry"/>
                </mxCell>
                <mxCell id="plHjzQY8NiuDGEiY0c5O-22" value="NIL" style="ellipse;whiteSpace=wrap;html=1;aspect=fixed;strokeColor=none;strokeWidth=2;fillColor=#000000;fontColor=#ffffff;" parent="plHjzQY8NiuDGEiY0c5O-1" vertex="1">
                    <mxGeometry x="180" y="400" width="30" height="30" as="geometry"/>
                </mxCell>
                <mxCell id="plHjzQY8NiuDGEiY0c5O-23" value="NIL" style="ellipse;whiteSpace=wrap;html=1;aspect=fixed;strokeColor=none;strokeWidth=2;fillColor=#000000;fontColor=#ffffff;" parent="plHjzQY8NiuDGEiY0c5O-1" vertex="1">
                    <mxGeometry x="250" y="400" width="30" height="30" as="geometry"/>
                </mxCell>
                <mxCell id="plHjzQY8NiuDGEiY0c5O-24" value="NIL" style="ellipse;whiteSpace=wrap;html=1;aspect=fixed;strokeColor=none;strokeWidth=2;fillColor=#000000;fontColor=#ffffff;" parent="plHjzQY8NiuDGEiY0c5O-1" vertex="1">
                    <mxGeometry x="320" y="400" width="30" height="30" as="geometry"/>
                </mxCell>
                <mxCell id="plHjzQY8NiuDGEiY0c5O-25" value="NIL" style="ellipse;whiteSpace=wrap;html=1;aspect=fixed;strokeColor=none;strokeWidth=2;fillColor=#000000;fontColor=#ffffff;" parent="plHjzQY8NiuDGEiY0c5O-1" vertex="1">
                    <mxGeometry x="390" y="400" width="30" height="30" as="geometry"/>
                </mxCell>
                <mxCell id="plHjzQY8NiuDGEiY0c5O-26" value="NIL" style="ellipse;whiteSpace=wrap;html=1;aspect=fixed;strokeColor=none;strokeWidth=2;fillColor=#000000;fontColor=#ffffff;" parent="plHjzQY8NiuDGEiY0c5O-1" vertex="1">
                    <mxGeometry x="440" y="345" width="30" height="30" as="geometry"/>
                </mxCell>
                <mxCell id="plHjzQY8NiuDGEiY0c5O-27" value="NIL" style="ellipse;whiteSpace=wrap;html=1;aspect=fixed;strokeColor=none;strokeWidth=2;fillColor=#000000;fontColor=#ffffff;" parent="plHjzQY8NiuDGEiY0c5O-1" vertex="1">
                    <mxGeometry x="510" y="345" width="30" height="30" as="geometry"/>
                </mxCell>
                <mxCell id="plHjzQY8NiuDGEiY0c5O-28" value="NIL" style="ellipse;whiteSpace=wrap;html=1;aspect=fixed;strokeColor=none;strokeWidth=2;fillColor=#000000;fontColor=#ffffff;" parent="plHjzQY8NiuDGEiY0c5O-1" vertex="1">
                    <mxGeometry x="580" y="345" width="30" height="30" as="geometry"/>
                </mxCell>
                <mxCell id="plHjzQY8NiuDGEiY0c5O-29" value="NIL" style="ellipse;whiteSpace=wrap;html=1;aspect=fixed;strokeColor=none;strokeWidth=2;fillColor=#000000;fontColor=#ffffff;" parent="plHjzQY8NiuDGEiY0c5O-1" vertex="1">
                    <mxGeometry x="650" y="345" width="30" height="30" as="geometry"/>
                </mxCell>
                <mxCell id="plHjzQY8NiuDGEiY0c5O-30" value="" style="endArrow=none;html=1;strokeColor=#000000;strokeWidth=2;" parent="plHjzQY8NiuDGEiY0c5O-1" source="plHjzQY8NiuDGEiY0c5O-20" target="plHjzQY8NiuDGEiY0c5O-5" edge="1">
                    <mxGeometry width="50" height="50" relative="1" as="geometry">
                        <mxPoint x="127.16830466094689" y="299.740891117239" as="sourcePoint"/>
                        <mxPoint x="192.8501414857492" y="260.28991510855053" as="targetPoint"/>
                    </mxGeometry>
                </mxCell>
                <mxCell id="plHjzQY8NiuDGEiY0c5O-31" value="" style="endArrow=none;html=1;strokeColor=#000000;strokeWidth=2;" parent="plHjzQY8NiuDGEiY0c5O-1" source="plHjzQY8NiuDGEiY0c5O-5" target="plHjzQY8NiuDGEiY0c5O-21" edge="1">
                    <mxGeometry width="50" height="50" relative="1" as="geometry">
                        <mxPoint x="137.1683046609469" y="309.740891117239" as="sourcePoint"/>
                        <mxPoint x="202.8501414857492" y="270.28991510855053" as="targetPoint"/>
                    </mxGeometry>
                </mxCell>
                <mxCell id="plHjzQY8NiuDGEiY0c5O-32" value="" style="endArrow=none;html=1;strokeColor=#000000;strokeWidth=2;" parent="plHjzQY8NiuDGEiY0c5O-1" source="plHjzQY8NiuDGEiY0c5O-22" target="plHjzQY8NiuDGEiY0c5O-7" edge="1">
                    <mxGeometry width="50" height="50" relative="1" as="geometry">
                        <mxPoint x="147.1683046609469" y="319.740891117239" as="sourcePoint"/>
                        <mxPoint x="212.8501414857492" y="280.28991510855053" as="targetPoint"/>
                    </mxGeometry>
                </mxCell>
                <mxCell id="plHjzQY8NiuDGEiY0c5O-33" value="" style="endArrow=none;html=1;strokeColor=#000000;strokeWidth=2;" parent="plHjzQY8NiuDGEiY0c5O-1" source="plHjzQY8NiuDGEiY0c5O-23" target="plHjzQY8NiuDGEiY0c5O-7" edge="1">
                    <mxGeometry width="50" height="50" relative="1" as="geometry">
                        <mxPoint x="157.1683046609469" y="329.740891117239" as="sourcePoint"/>
                        <mxPoint x="222.8501414857492" y="290.28991510855053" as="targetPoint"/>
                    </mxGeometry>
                </mxCell>
                <mxCell id="plHjzQY8NiuDGEiY0c5O-34" value="" style="endArrow=none;html=1;strokeColor=#000000;strokeWidth=2;" parent="plHjzQY8NiuDGEiY0c5O-1" source="plHjzQY8NiuDGEiY0c5O-24" target="plHjzQY8NiuDGEiY0c5O-9" edge="1">
                    <mxGeometry width="50" height="50" relative="1" as="geometry">
                        <mxPoint x="167.1683046609469" y="339.740891117239" as="sourcePoint"/>
                        <mxPoint x="232.8501414857492" y="300.28991510855053" as="targetPoint"/>
                    </mxGeometry>
                </mxCell>
                <mxCell id="plHjzQY8NiuDGEiY0c5O-35" value="" style="endArrow=none;html=1;strokeColor=#000000;strokeWidth=2;" parent="plHjzQY8NiuDGEiY0c5O-1" source="plHjzQY8NiuDGEiY0c5O-25" target="plHjzQY8NiuDGEiY0c5O-9" edge="1">
                    <mxGeometry width="50" height="50" relative="1" as="geometry">
                        <mxPoint x="177.1683046609469" y="349.740891117239" as="sourcePoint"/>
                        <mxPoint x="242.8501414857492" y="310.28991510855053" as="targetPoint"/>
                    </mxGeometry>
                </mxCell>
                <mxCell id="plHjzQY8NiuDGEiY0c5O-36" value="" style="endArrow=none;html=1;strokeColor=#000000;strokeWidth=2;" parent="plHjzQY8NiuDGEiY0c5O-1" source="plHjzQY8NiuDGEiY0c5O-26" target="plHjzQY8NiuDGEiY0c5O-10" edge="1">
                    <mxGeometry width="50" height="50" relative="1" as="geometry">
                        <mxPoint x="187.1683046609469" y="359.740891117239" as="sourcePoint"/>
                        <mxPoint x="252.8501414857492" y="320.28991510855053" as="targetPoint"/>
                    </mxGeometry>
                </mxCell>
                <mxCell id="plHjzQY8NiuDGEiY0c5O-37" value="" style="endArrow=none;html=1;strokeColor=#000000;strokeWidth=2;" parent="plHjzQY8NiuDGEiY0c5O-1" source="plHjzQY8NiuDGEiY0c5O-27" target="plHjzQY8NiuDGEiY0c5O-10" edge="1">
                    <mxGeometry width="50" height="50" relative="1" as="geometry">
                        <mxPoint x="197.1683046609469" y="369.740891117239" as="sourcePoint"/>
                        <mxPoint x="262.8501414857492" y="330.28991510855053" as="targetPoint"/>
                    </mxGeometry>
                </mxCell>
                <mxCell id="plHjzQY8NiuDGEiY0c5O-38" value="" style="endArrow=none;html=1;strokeColor=#000000;strokeWidth=2;" parent="plHjzQY8NiuDGEiY0c5O-1" source="plHjzQY8NiuDGEiY0c5O-28" target="plHjzQY8NiuDGEiY0c5O-11" edge="1">
                    <mxGeometry width="50" height="50" relative="1" as="geometry">
                        <mxPoint x="207.1683046609469" y="379.740891117239" as="sourcePoint"/>
                        <mxPoint x="272.8501414857492" y="340.28991510855053" as="targetPoint"/>
                    </mxGeometry>
                </mxCell>
                <mxCell id="plHjzQY8NiuDGEiY0c5O-39" value="" style="endArrow=none;html=1;strokeColor=#000000;strokeWidth=2;" parent="plHjzQY8NiuDGEiY0c5O-1" source="plHjzQY8NiuDGEiY0c5O-29" target="plHjzQY8NiuDGEiY0c5O-11" edge="1">
                    <mxGeometry width="50" height="50" relative="1" as="geometry">
                        <mxPoint x="217.1683046609469" y="389.740891117239" as="sourcePoint"/>
                        <mxPoint x="282.8501414857492" y="350.28991510855053" as="targetPoint"/>
                    </mxGeometry>
                </mxCell>
                <mxCell id="ILxRi8F9TTSWx92EpV4K-0" value="&lt;b style=&quot;color: rgb(0 , 0 , 0)&quot;&gt;&lt;font style=&quot;font-size: 14px&quot;&gt;0&lt;/font&gt;&lt;/b&gt;" style="text;html=1;strokeColor=none;fillColor=none;align=center;verticalAlign=middle;whiteSpace=wrap;rounded=0;" parent="plHjzQY8NiuDGEiY0c5O-1" vertex="1">
                    <mxGeometry x="610" y="350" width="20" height="20" as="geometry"/>
                </mxCell>
                <mxCell id="ILxRi8F9TTSWx92EpV4K-1" value="&lt;b style=&quot;color: rgb(0 , 0 , 0)&quot;&gt;&lt;font style=&quot;font-size: 14px&quot;&gt;0&lt;/font&gt;&lt;/b&gt;" style="text;html=1;strokeColor=none;fillColor=none;align=center;verticalAlign=middle;whiteSpace=wrap;rounded=0;" parent="plHjzQY8NiuDGEiY0c5O-1" vertex="1">
                    <mxGeometry x="540" y="350" width="20" height="20" as="geometry"/>
                </mxCell>
                <mxCell id="ILxRi8F9TTSWx92EpV4K-2" value="&lt;b style=&quot;color: rgb(0 , 0 , 0)&quot;&gt;&lt;font style=&quot;font-size: 14px&quot;&gt;0&lt;/font&gt;&lt;/b&gt;" style="text;html=1;strokeColor=none;fillColor=none;align=center;verticalAlign=middle;whiteSpace=wrap;rounded=0;" parent="plHjzQY8NiuDGEiY0c5O-1" vertex="1">
                    <mxGeometry x="470" y="350" width="20" height="20" as="geometry"/>
                </mxCell>
                <mxCell id="ILxRi8F9TTSWx92EpV4K-3" value="&lt;b style=&quot;color: rgb(0 , 0 , 0)&quot;&gt;&lt;font style=&quot;font-size: 14px&quot;&gt;0&lt;/font&gt;&lt;/b&gt;" style="text;html=1;strokeColor=none;fillColor=none;align=center;verticalAlign=middle;whiteSpace=wrap;rounded=0;" parent="plHjzQY8NiuDGEiY0c5O-1" vertex="1">
                    <mxGeometry x="420" y="405" width="20" height="20" as="geometry"/>
                </mxCell>
                <mxCell id="ILxRi8F9TTSWx92EpV4K-4" value="&lt;b style=&quot;color: rgb(0 , 0 , 0)&quot;&gt;&lt;font style=&quot;font-size: 14px&quot;&gt;0&lt;/font&gt;&lt;/b&gt;" style="text;html=1;strokeColor=none;fillColor=none;align=center;verticalAlign=middle;whiteSpace=wrap;rounded=0;" parent="plHjzQY8NiuDGEiY0c5O-1" vertex="1">
                    <mxGeometry x="350" y="405" width="20" height="20" as="geometry"/>
                </mxCell>
                <mxCell id="ILxRi8F9TTSWx92EpV4K-5" value="&lt;b style=&quot;color: rgb(0 , 0 , 0)&quot;&gt;&lt;font style=&quot;font-size: 14px&quot;&gt;0&lt;/font&gt;&lt;/b&gt;" style="text;html=1;strokeColor=none;fillColor=none;align=center;verticalAlign=middle;whiteSpace=wrap;rounded=0;" parent="plHjzQY8NiuDGEiY0c5O-1" vertex="1">
                    <mxGeometry x="280" y="405" width="20" height="20" as="geometry"/>
                </mxCell>
                <mxCell id="ILxRi8F9TTSWx92EpV4K-6" value="&lt;b style=&quot;color: rgb(0 , 0 , 0)&quot;&gt;&lt;font style=&quot;font-size: 14px&quot;&gt;0&lt;/font&gt;&lt;/b&gt;" style="text;html=1;strokeColor=none;fillColor=none;align=center;verticalAlign=middle;whiteSpace=wrap;rounded=0;" parent="plHjzQY8NiuDGEiY0c5O-1" vertex="1">
                    <mxGeometry x="210" y="405" width="20" height="20" as="geometry"/>
                </mxCell>
                <mxCell id="ILxRi8F9TTSWx92EpV4K-7" value="&lt;b style=&quot;color: rgb(0 , 0 , 0)&quot;&gt;&lt;font style=&quot;font-size: 14px&quot;&gt;0&lt;/font&gt;&lt;/b&gt;" style="text;html=1;strokeColor=none;fillColor=none;align=center;verticalAlign=middle;whiteSpace=wrap;rounded=0;" parent="plHjzQY8NiuDGEiY0c5O-1" vertex="1">
                    <mxGeometry x="150" y="350" width="20" height="20" as="geometry"/>
                </mxCell>
                <mxCell id="ILxRi8F9TTSWx92EpV4K-8" value="&lt;b style=&quot;color: rgb(0 , 0 , 0)&quot;&gt;&lt;font style=&quot;font-size: 14px&quot;&gt;0&lt;/font&gt;&lt;/b&gt;" style="text;html=1;strokeColor=none;fillColor=none;align=center;verticalAlign=middle;whiteSpace=wrap;rounded=0;" parent="plHjzQY8NiuDGEiY0c5O-1" vertex="1">
                    <mxGeometry x="80" y="350" width="20" height="20" as="geometry"/>
                </mxCell>
                <mxCell id="ILxRi8F9TTSWx92EpV4K-9" value="&lt;b style=&quot;color: rgb(0 , 0 , 0)&quot;&gt;&lt;font style=&quot;font-size: 14px&quot;&gt;0&lt;/font&gt;&lt;/b&gt;" style="text;html=1;strokeColor=none;fillColor=none;align=center;verticalAlign=middle;whiteSpace=wrap;rounded=0;" parent="plHjzQY8NiuDGEiY0c5O-1" vertex="1">
                    <mxGeometry x="680" y="350" width="20" height="20" as="geometry"/>
                </mxCell>
                <mxCell id="ILxRi8F9TTSWx92EpV4K-10" value="&lt;b style=&quot;color: rgb(0 , 0 , 0)&quot;&gt;&lt;font style=&quot;font-size: 14px&quot;&gt;1&lt;/font&gt;&lt;/b&gt;&lt;span style=&quot;color: rgba(0 , 0 , 0 , 0) ; font-family: monospace ; font-size: 0px&quot;&gt;%3CmxGraphModel%3E%3Croot%3E%3CmxCell%20id%3D%220%22%2F%3E%3CmxCell%20id%3D%221%22%20parent%3D%220%22%2F%3E%3CmxCell%20id%3D%222%22%20value%3D%22%26lt%3Bb%20style%3D%26quot%3Bcolor%3A%20rgb(0%20%2C%200%20%2C%200)%26quot%3B%26gt%3B%26lt%3Bfont%20style%3D%26quot%3Bfont-size%3A%2014px%26quot%3B%26gt%3B0%26lt%3B%2Ffont%26gt%3B%26lt%3B%2Fb%26gt%3B%22%20style%3D%22text%3Bhtml%3D1%3BstrokeColor%3Dnone%3BfillColor%3Dnone%3Balign%3Dcenter%3BverticalAlign%3Dmiddle%3BwhiteSpace%3Dwrap%3Brounded%3D0%3B%22%20vertex%3D%221%22%20parent%3D%221%22%3E%3CmxGeometry%20x%3D%22120%22%20y%3D%2280%22%20width%3D%2220%22%20height%3D%2220%22%20as%3D%22geometry%22%2F%3E%3C%2FmxCell%3E%3C%2Froot%3E%3C%2FmxGraphModel%3E&lt;/span&gt;" style="text;html=1;strokeColor=none;fillColor=none;align=center;verticalAlign=middle;whiteSpace=wrap;rounded=0;" parent="plHjzQY8NiuDGEiY0c5O-1" vertex="1">
                    <mxGeometry x="580" y="230" width="20" height="20" as="geometry"/>
                </mxCell>
                <mxCell id="ILxRi8F9TTSWx92EpV4K-11" value="&lt;b style=&quot;color: rgb(0 , 0 , 0)&quot;&gt;&lt;font style=&quot;font-size: 14px&quot;&gt;1&lt;/font&gt;&lt;/b&gt;&lt;span style=&quot;color: rgba(0 , 0 , 0 , 0) ; font-family: monospace ; font-size: 0px&quot;&gt;%3CmxGraphModel%3E%3Croot%3E%3CmxCell%20id%3D%220%22%2F%3E%3CmxCell%20id%3D%221%22%20parent%3D%220%22%2F%3E%3CmxCell%20id%3D%222%22%20value%3D%22%26lt%3Bb%20style%3D%26quot%3Bcolor%3A%20rgb(0%20%2C%200%20%2C%200)%26quot%3B%26gt%3B%26lt%3Bfont%20style%3D%26quot%3Bfont-size%3A%2014px%26quot%3B%26gt%3B0%26lt%3B%2Ffont%26gt%3B%26lt%3B%2Fb%26gt%3B%22%20style%3D%22text%3Bhtml%3D1%3BstrokeColor%3Dnone%3BfillColor%3Dnone%3Balign%3Dcenter%3BverticalAlign%3Dmiddle%3BwhiteSpace%3Dwrap%3Brounded%3D0%3B%22%20vertex%3D%221%22%20parent%3D%221%22%3E%3CmxGeometry%20x%3D%22120%22%20y%3D%2280%22%20width%3D%2220%22%20height%3D%2220%22%20as%3D%22geometry%22%2F%3E%3C%2FmxCell%3E%3C%2Froot%3E%3C%2FmxGraphModel%3E&lt;/span&gt;" style="text;html=1;strokeColor=none;fillColor=none;align=center;verticalAlign=middle;whiteSpace=wrap;rounded=0;" parent="plHjzQY8NiuDGEiY0c5O-1" vertex="1">
                    <mxGeometry x="320" y="290" width="20" height="20" as="geometry"/>
                </mxCell>
                <mxCell id="ILxRi8F9TTSWx92EpV4K-12" value="&lt;b style=&quot;color: rgb(0 , 0 , 0)&quot;&gt;&lt;font style=&quot;font-size: 14px&quot;&gt;1&lt;/font&gt;&lt;/b&gt;&lt;span style=&quot;color: rgba(0 , 0 , 0 , 0) ; font-family: monospace ; font-size: 0px&quot;&gt;%3CmxGraphModel%3E%3Croot%3E%3CmxCell%20id%3D%220%22%2F%3E%3CmxCell%20id%3D%221%22%20parent%3D%220%22%2F%3E%3CmxCell%20id%3D%222%22%20value%3D%22%26lt%3Bb%20style%3D%26quot%3Bcolor%3A%20rgb(0%20%2C%200%20%2C%200)%26quot%3B%26gt%3B%26lt%3Bfont%20style%3D%26quot%3Bfont-size%3A%2014px%26quot%3B%26gt%3B0%26lt%3B%2Ffont%26gt%3B%26lt%3B%2Fb%26gt%3B%22%20style%3D%22text%3Bhtml%3D1%3BstrokeColor%3Dnone%3BfillColor%3Dnone%3Balign%3Dcenter%3BverticalAlign%3Dmiddle%3BwhiteSpace%3Dwrap%3Brounded%3D0%3B%22%20vertex%3D%221%22%20parent%3D%221%22%3E%3CmxGeometry%20x%3D%22120%22%20y%3D%2280%22%20width%3D%2220%22%20height%3D%2220%22%20as%3D%22geometry%22%2F%3E%3C%2FmxCell%3E%3C%2Froot%3E%3C%2FmxGraphModel%3E&lt;/span&gt;" style="text;html=1;strokeColor=none;fillColor=none;align=center;verticalAlign=middle;whiteSpace=wrap;rounded=0;" parent="plHjzQY8NiuDGEiY0c5O-1" vertex="1">
                    <mxGeometry x="120" y="290" width="20" height="20" as="geometry"/>
                </mxCell>
                <mxCell id="ILxRi8F9TTSWx92EpV4K-13" value="&lt;font color=&quot;#000000&quot;&gt;&lt;span style=&quot;font-size: 14px&quot;&gt;&lt;b&gt;2&lt;/b&gt;&lt;/span&gt;&lt;/font&gt;" style="text;html=1;strokeColor=none;fillColor=none;align=center;verticalAlign=middle;whiteSpace=wrap;rounded=0;" parent="plHjzQY8NiuDGEiY0c5O-1" vertex="1">
                    <mxGeometry x="400" y="170" width="20" height="20" as="geometry"/>
                </mxCell>
                <mxCell id="ILxRi8F9TTSWx92EpV4K-15" value="&lt;font color=&quot;#000000&quot;&gt;&lt;span style=&quot;font-size: 14px&quot;&gt;&lt;b&gt;1&lt;/b&gt;&lt;/span&gt;&lt;/font&gt;" style="text;html=1;strokeColor=none;fillColor=none;align=center;verticalAlign=middle;whiteSpace=wrap;rounded=0;" parent="plHjzQY8NiuDGEiY0c5O-1" vertex="1">
                    <mxGeometry x="250" y="350" width="20" height="20" as="geometry"/>
                </mxCell>
                <mxCell id="ILxRi8F9TTSWx92EpV4K-18" value="&lt;font color=&quot;#000000&quot;&gt;&lt;span style=&quot;font-size: 14px&quot;&gt;&lt;b&gt;2&lt;/b&gt;&lt;/span&gt;&lt;/font&gt;" style="text;html=1;strokeColor=none;fillColor=none;align=center;verticalAlign=middle;whiteSpace=wrap;rounded=0;" parent="plHjzQY8NiuDGEiY0c5O-1" vertex="1">
                    <mxGeometry x="230" y="240" width="20" height="20" as="geometry"/>
                </mxCell>
                <mxCell id="ILxRi8F9TTSWx92EpV4K-19" value="&lt;font color=&quot;#000000&quot;&gt;&lt;span style=&quot;font-size: 14px&quot;&gt;&lt;b&gt;1&lt;/b&gt;&lt;/span&gt;&lt;/font&gt;" style="text;html=1;strokeColor=none;fillColor=none;align=center;verticalAlign=middle;whiteSpace=wrap;rounded=0;" parent="plHjzQY8NiuDGEiY0c5O-1" vertex="1">
                    <mxGeometry x="390" y="350" width="20" height="20" as="geometry"/>
                </mxCell>
                <mxCell id="ILxRi8F9TTSWx92EpV4K-20" value="&lt;font color=&quot;#000000&quot;&gt;&lt;span style=&quot;font-size: 14px&quot;&gt;&lt;b&gt;1&lt;/b&gt;&lt;/span&gt;&lt;/font&gt;" style="text;html=1;strokeColor=none;fillColor=none;align=center;verticalAlign=middle;whiteSpace=wrap;rounded=0;" parent="plHjzQY8NiuDGEiY0c5O-1" vertex="1">
                    <mxGeometry x="510" y="290" width="20" height="20" as="geometry"/>
                </mxCell>
                <mxCell id="ILxRi8F9TTSWx92EpV4K-21" value="&lt;font color=&quot;#000000&quot;&gt;&lt;span style=&quot;font-size: 14px&quot;&gt;&lt;b&gt;1&lt;/b&gt;&lt;/span&gt;&lt;/font&gt;" style="text;html=1;strokeColor=none;fillColor=none;align=center;verticalAlign=middle;whiteSpace=wrap;rounded=0;" parent="plHjzQY8NiuDGEiY0c5O-1" vertex="1">
                    <mxGeometry x="650" y="290" width="20" height="20" as="geometry"/>
                </mxCell>
            </root>
        </mxGraphModel>
    </diagram>
    <diagram name="implementation" id="5uG-N1yPchQ6WroNXmmT">
        &#xa;        
        <mxGraphModel dx="715" dy="575" grid="1" gridSize="10" guides="1" tooltips="1" connect="1" arrows="1" fold="1" page="1" pageScale="1" pageWidth="827" pageHeight="1169" math="0" shadow="0">
            &#xa;            
            <root>
                &#xa;                
                <mxCell id="FXUCoAb7Mco_hMLZKSYN-0"/>
                &#xa;                
                <mxCell id="FXUCoAb7Mco_hMLZKSYN-1" parent="FXUCoAb7Mco_hMLZKSYN-0"/>
                &#xa;                
                <mxCell id="FXUCoAb7Mco_hMLZKSYN-2" value="" style="rounded=0;whiteSpace=wrap;html=1;fillColor=#FFFFFF;strokeColor=none;" parent="FXUCoAb7Mco_hMLZKSYN-1" vertex="1">
                    &#xa;                    
                    <mxGeometry x="100" y="120" width="520" height="340" as="geometry"/>
                    &#xa;                
                </mxCell>
                &#xa;                
                <mxCell id="FXUCoAb7Mco_hMLZKSYN-3" value="23" style="ellipse;whiteSpace=wrap;html=1;aspect=fixed;strokeColor=none;strokeWidth=2;fillColor=#000000;fontColor=#ffffff;" parent="FXUCoAb7Mco_hMLZKSYN-1" vertex="1">
                    &#xa;                    
                    <mxGeometry x="320" y="160" width="40" height="40" as="geometry"/>
                    &#xa;                
                </mxCell>
                &#xa;                
                <mxCell id="FXUCoAb7Mco_hMLZKSYN-4" value="30" style="ellipse;whiteSpace=wrap;html=1;aspect=fixed;strokeColor=none;strokeWidth=2;fillColor=#000000;fontColor=#ffffff;" parent="FXUCoAb7Mco_hMLZKSYN-1" vertex="1">
                    &#xa;                    
                    <mxGeometry x="460" y="220" width="40" height="40" as="geometry"/>
                    &#xa;                
                </mxCell>
                &#xa;                
                <mxCell id="FXUCoAb7Mco_hMLZKSYN-5" value="4" style="ellipse;whiteSpace=wrap;html=1;aspect=fixed;strokeColor=none;strokeWidth=2;fillColor=#000000;fontColor=#ffffff;" parent="FXUCoAb7Mco_hMLZKSYN-1" vertex="1">
                    &#xa;                    
                    <mxGeometry x="120" y="280" width="40" height="40" as="geometry"/>
                    &#xa;                
                </mxCell>
                &#xa;                
                <mxCell id="FXUCoAb7Mco_hMLZKSYN-6" value="15" style="ellipse;whiteSpace=wrap;html=1;aspect=fixed;strokeColor=none;strokeWidth=2;fillColor=#000000;fontColor=#ffffff;" parent="FXUCoAb7Mco_hMLZKSYN-1" vertex="1">
                    &#xa;                    
                    <mxGeometry x="240" y="280" width="40" height="40" as="geometry"/>
                    &#xa;                
                </mxCell>
                &#xa;                
                <mxCell id="FXUCoAb7Mco_hMLZKSYN-7" value="11" style="ellipse;whiteSpace=wrap;html=1;aspect=fixed;strokeColor=none;strokeWidth=2;fillColor=#FF0000;fontColor=#ffffff;" parent="FXUCoAb7Mco_hMLZKSYN-1" vertex="1">
                    &#xa;                    
                    <mxGeometry x="190" y="340" width="40" height="40" as="geometry"/>
                    &#xa;                
                </mxCell>
                &#xa;                
                <mxCell id="FXUCoAb7Mco_hMLZKSYN-8" value="7" style="ellipse;whiteSpace=wrap;html=1;aspect=fixed;strokeColor=none;strokeWidth=2;fillColor=#FF0000;fontColor=#ffffff;" parent="FXUCoAb7Mco_hMLZKSYN-1" vertex="1">
                    &#xa;                    
                    <mxGeometry x="180" y="220" width="40" height="40" as="geometry"/>
                    &#xa;                
                </mxCell>
                &#xa;                
                <mxCell id="FXUCoAb7Mco_hMLZKSYN-9" value="20" style="ellipse;whiteSpace=wrap;html=1;aspect=fixed;strokeColor=none;strokeWidth=2;fillColor=#FF0000;fontColor=#ffffff;" parent="FXUCoAb7Mco_hMLZKSYN-1" vertex="1">
                    &#xa;                    
                    <mxGeometry x="290" y="340" width="40" height="40" as="geometry"/>
                    &#xa;                
                </mxCell>
                &#xa;                
                <mxCell id="FXUCoAb7Mco_hMLZKSYN-10" value="24" style="ellipse;whiteSpace=wrap;html=1;aspect=fixed;strokeColor=none;strokeWidth=2;fillColor=#FF0000;fontColor=#ffffff;" parent="FXUCoAb7Mco_hMLZKSYN-1" vertex="1">
                    &#xa;                    
                    <mxGeometry x="400" y="280" width="40" height="40" as="geometry"/>
                    &#xa;                
                </mxCell>
                &#xa;                
                <mxCell id="FXUCoAb7Mco_hMLZKSYN-11" value="34" style="ellipse;whiteSpace=wrap;html=1;aspect=fixed;strokeColor=none;strokeWidth=2;fillColor=#FF0000;fontColor=#ffffff;" parent="FXUCoAb7Mco_hMLZKSYN-1" vertex="1">
                    &#xa;                    
                    <mxGeometry x="520" y="280" width="40" height="40" as="geometry"/>
                    &#xa;                
                </mxCell>
                &#xa;                
                <mxCell id="FXUCoAb7Mco_hMLZKSYN-12" value="" style="endArrow=none;html=1;strokeColor=#000000;strokeWidth=2;" parent="FXUCoAb7Mco_hMLZKSYN-1" source="FXUCoAb7Mco_hMLZKSYN-8" target="FXUCoAb7Mco_hMLZKSYN-3" edge="1">
                    &#xa;                    
                    <mxGeometry width="50" height="50" relative="1" as="geometry">
                        &#xa;                        
                        <mxPoint x="234.14213562373106" y="185.85786437626894" as="sourcePoint"/>
                        &#xa;                        
                        <mxPoint x="325.85786437626894" y="134.14213562373106" as="targetPoint"/>
                        &#xa;                    
                    </mxGeometry>
                    &#xa;                
                </mxCell>
                &#xa;                
                <mxCell id="FXUCoAb7Mco_hMLZKSYN-13" value="" style="endArrow=none;html=1;strokeColor=#000000;strokeWidth=2;" parent="FXUCoAb7Mco_hMLZKSYN-1" source="FXUCoAb7Mco_hMLZKSYN-3" target="FXUCoAb7Mco_hMLZKSYN-4" edge="1">
                    &#xa;                    
                    <mxGeometry width="50" height="50" relative="1" as="geometry">
                        &#xa;                        
                        <mxPoint x="244.14213562373106" y="195.85786437626894" as="sourcePoint"/>
                        &#xa;                        
                        <mxPoint x="335.85786437626894" y="144.14213562373106" as="targetPoint"/>
                        &#xa;                    
                    </mxGeometry>
                    &#xa;                
                </mxCell>
                &#xa;                
                <mxCell id="FXUCoAb7Mco_hMLZKSYN-14" value="" style="endArrow=none;html=1;strokeColor=#000000;strokeWidth=2;" parent="FXUCoAb7Mco_hMLZKSYN-1" source="FXUCoAb7Mco_hMLZKSYN-6" target="FXUCoAb7Mco_hMLZKSYN-9" edge="1">
                    &#xa;                    
                    <mxGeometry width="50" height="50" relative="1" as="geometry">
                        &#xa;                        
                        <mxPoint x="254.14213562373106" y="205.85786437626894" as="sourcePoint"/>
                        &#xa;                        
                        <mxPoint x="345.85786437626894" y="154.14213562373106" as="targetPoint"/>
                        &#xa;                    
                    </mxGeometry>
                    &#xa;                
                </mxCell>
                &#xa;                
                <mxCell id="FXUCoAb7Mco_hMLZKSYN-15" value="" style="endArrow=none;html=1;strokeColor=#000000;strokeWidth=2;" parent="FXUCoAb7Mco_hMLZKSYN-1" source="FXUCoAb7Mco_hMLZKSYN-7" target="FXUCoAb7Mco_hMLZKSYN-6" edge="1">
                    &#xa;                    
                    <mxGeometry width="50" height="50" relative="1" as="geometry">
                        &#xa;                        
                        <mxPoint x="264.14213562373106" y="215.85786437626894" as="sourcePoint"/>
                        &#xa;                        
                        <mxPoint x="355.85786437626894" y="164.14213562373106" as="targetPoint"/>
                        &#xa;                    
                    </mxGeometry>
                    &#xa;                
                </mxCell>
                &#xa;                
                <mxCell id="FXUCoAb7Mco_hMLZKSYN-16" value="" style="endArrow=none;html=1;strokeColor=#000000;strokeWidth=2;" parent="FXUCoAb7Mco_hMLZKSYN-1" source="FXUCoAb7Mco_hMLZKSYN-5" target="FXUCoAb7Mco_hMLZKSYN-8" edge="1">
                    &#xa;                    
                    <mxGeometry width="50" height="50" relative="1" as="geometry">
                        &#xa;                        
                        <mxPoint x="274.14213562373106" y="225.85786437626894" as="sourcePoint"/>
                        &#xa;                        
                        <mxPoint x="365.85786437626894" y="174.14213562373106" as="targetPoint"/>
                        &#xa;                    
                    </mxGeometry>
                    &#xa;                
                </mxCell>
                &#xa;                
                <mxCell id="FXUCoAb7Mco_hMLZKSYN-17" value="" style="endArrow=none;html=1;strokeColor=#000000;strokeWidth=2;" parent="FXUCoAb7Mco_hMLZKSYN-1" source="FXUCoAb7Mco_hMLZKSYN-6" target="FXUCoAb7Mco_hMLZKSYN-8" edge="1">
                    &#xa;                    
                    <mxGeometry width="50" height="50" relative="1" as="geometry">
                        &#xa;                        
                        <mxPoint x="284.14213562373106" y="235.85786437626894" as="sourcePoint"/>
                        &#xa;                        
                        <mxPoint x="375.85786437626894" y="184.14213562373106" as="targetPoint"/>
                        &#xa;                    
                    </mxGeometry>
                    &#xa;                
                </mxCell>
                &#xa;                
                <mxCell id="FXUCoAb7Mco_hMLZKSYN-18" value="" style="endArrow=none;html=1;strokeColor=#000000;strokeWidth=2;" parent="FXUCoAb7Mco_hMLZKSYN-1" source="FXUCoAb7Mco_hMLZKSYN-11" target="FXUCoAb7Mco_hMLZKSYN-4" edge="1">
                    &#xa;                    
                    <mxGeometry width="50" height="50" relative="1" as="geometry">
                        &#xa;                        
                        <mxPoint x="294.14213562373106" y="245.85786437626894" as="sourcePoint"/>
                        &#xa;                        
                        <mxPoint x="385.85786437626894" y="194.14213562373106" as="targetPoint"/>
                        &#xa;                    
                    </mxGeometry>
                    &#xa;                
                </mxCell>
                &#xa;                
                <mxCell id="FXUCoAb7Mco_hMLZKSYN-19" value="" style="endArrow=none;html=1;strokeColor=#000000;strokeWidth=2;" parent="FXUCoAb7Mco_hMLZKSYN-1" source="FXUCoAb7Mco_hMLZKSYN-10" target="FXUCoAb7Mco_hMLZKSYN-4" edge="1">
                    &#xa;                    
                    <mxGeometry width="50" height="50" relative="1" as="geometry">
                        &#xa;                        
                        <mxPoint x="304.14213562373106" y="255.85786437626894" as="sourcePoint"/>
                        &#xa;                        
                        <mxPoint x="395.85786437626894" y="204.14213562373106" as="targetPoint"/>
                        &#xa;                    
                    </mxGeometry>
                    &#xa;                
                </mxCell>
                &#xa;                
                <mxCell id="1eduQN-iE5uahdZ0mx4j-0" value="NIL" style="ellipse;whiteSpace=wrap;html=1;aspect=fixed;strokeColor=none;strokeWidth=2;fillColor=#000000;fontColor=#ffffff;" parent="FXUCoAb7Mco_hMLZKSYN-1" vertex="1">
                    &#xa;                    
                    <mxGeometry x="325" y="420" width="30" height="30" as="geometry"/>
                    &#xa;                
                </mxCell>
                &#xa;                
                <mxCell id="1eduQN-iE5uahdZ0mx4j-1" value="" style="endArrow=none;html=1;strokeColor=#000000;strokeWidth=2;edgeStyle=orthogonalEdgeStyle;curved=1;" parent="FXUCoAb7Mco_hMLZKSYN-1" source="1eduQN-iE5uahdZ0mx4j-0" target="FXUCoAb7Mco_hMLZKSYN-9" edge="1">
                    &#xa;                    
                    <mxGeometry width="50" height="50" relative="1" as="geometry">
                        &#xa;                        
                        <mxPoint x="109.995036646205" y="629.2232900363416" as="sourcePoint"/>
                        &#xa;                        
                        <mxPoint x="213.23709939962953" y="584.9983859715873" as="targetPoint"/>
                        &#xa;                    
                    </mxGeometry>
                    &#xa;                
                </mxCell>
                &#xa;                
                <mxCell id="1eduQN-iE5uahdZ0mx4j-2" value="" style="endArrow=none;html=1;strokeColor=#000000;strokeWidth=2;edgeStyle=orthogonalEdgeStyle;curved=1;" parent="FXUCoAb7Mco_hMLZKSYN-1" source="1eduQN-iE5uahdZ0mx4j-0" target="FXUCoAb7Mco_hMLZKSYN-7" edge="1">
                    &#xa;                    
                    <mxGeometry width="50" height="50" relative="1" as="geometry">
                        &#xa;                        
                        <mxPoint x="340" y="440" as="sourcePoint"/>
                        &#xa;                        
                        <mxPoint x="320" y="390" as="targetPoint"/>
                        &#xa;                    
                    </mxGeometry>
                    &#xa;                
                </mxCell>
                &#xa;                
                <mxCell id="1eduQN-iE5uahdZ0mx4j-3" value="" style="endArrow=none;html=1;strokeColor=#000000;strokeWidth=2;edgeStyle=orthogonalEdgeStyle;curved=1;" parent="FXUCoAb7Mco_hMLZKSYN-1" source="1eduQN-iE5uahdZ0mx4j-0" target="FXUCoAb7Mco_hMLZKSYN-5" edge="1">
                    &#xa;                    
                    <mxGeometry width="50" height="50" relative="1" as="geometry">
                        &#xa;                        
                        <mxPoint x="340" y="440" as="sourcePoint"/>
                        &#xa;                        
                        <mxPoint x="330" y="400" as="targetPoint"/>
                        &#xa;                    
                    </mxGeometry>
                    &#xa;                
                </mxCell>
                &#xa;                
                <mxCell id="1eduQN-iE5uahdZ0mx4j-4" value="" style="endArrow=none;html=1;strokeColor=#000000;strokeWidth=2;edgeStyle=orthogonalEdgeStyle;curved=1;" parent="FXUCoAb7Mco_hMLZKSYN-1" source="1eduQN-iE5uahdZ0mx4j-0" target="FXUCoAb7Mco_hMLZKSYN-3" edge="1">
                    &#xa;                    
                    <mxGeometry width="50" height="50" relative="1" as="geometry">
                        &#xa;                        
                        <mxPoint x="620" y="150" as="sourcePoint"/>
                        &#xa;                        
                        <mxPoint x="340" y="150" as="targetPoint"/>
                        &#xa;                        
                        <Array as="points">
                            &#xa;                            
                            <mxPoint x="590" y="435"/>
                            &#xa;                            
                            <mxPoint x="590" y="140"/>
                            &#xa;                            
                            <mxPoint x="340" y="140"/>
                            &#xa;                        
                        </Array>
                        &#xa;                    
                    </mxGeometry>
                    &#xa;                
                </mxCell>
                &#xa;                
                <mxCell id="1eduQN-iE5uahdZ0mx4j-5" value="" style="endArrow=none;html=1;strokeColor=#000000;strokeWidth=2;edgeStyle=orthogonalEdgeStyle;curved=1;" parent="FXUCoAb7Mco_hMLZKSYN-1" source="1eduQN-iE5uahdZ0mx4j-0" target="FXUCoAb7Mco_hMLZKSYN-10" edge="1">
                    &#xa;                    
                    <mxGeometry width="50" height="50" relative="1" as="geometry">
                        &#xa;                        
                        <mxPoint x="380" y="460" as="sourcePoint"/>
                        &#xa;                        
                        <mxPoint x="350" y="420" as="targetPoint"/>
                        &#xa;                    
                    </mxGeometry>
                    &#xa;                
                </mxCell>
                &#xa;                
                <mxCell id="1eduQN-iE5uahdZ0mx4j-6" value="" style="endArrow=none;html=1;strokeColor=#000000;strokeWidth=2;edgeStyle=orthogonalEdgeStyle;curved=1;" parent="FXUCoAb7Mco_hMLZKSYN-1" source="1eduQN-iE5uahdZ0mx4j-0" target="FXUCoAb7Mco_hMLZKSYN-11" edge="1">
                    &#xa;                    
                    <mxGeometry width="50" height="50" relative="1" as="geometry">
                        &#xa;                        
                        <mxPoint x="390" y="470" as="sourcePoint"/>
                        &#xa;                        
                        <mxPoint x="360" y="430" as="targetPoint"/>
                        &#xa;                    
                    </mxGeometry>
                    &#xa;                
                </mxCell>
                &#xa;            
            </root>
            &#xa;        
        </mxGraphModel>
        &#xa;    
    </diagram>
    <diagram id="Qtc8k4Ej4E2_jF9x3GHs" name="left_rotation">
        &#xa;        
        <mxGraphModel dx="991" dy="575" grid="1" gridSize="10" guides="1" tooltips="1" connect="1" arrows="1" fold="1" page="1" pageScale="1" pageWidth="850" pageHeight="1100" math="0" shadow="0">
            &#xa;            
            <root>
                &#xa;                
                <mxCell id="r5Pg7tNitYTx42a6meTz-0"/>
                &#xa;                
                <mxCell id="r5Pg7tNitYTx42a6meTz-1" parent="r5Pg7tNitYTx42a6meTz-0"/>
                &#xa;                
                <mxCell id="17ri1gyHeIR9pPJ-igV4-43" value="" style="rounded=0;whiteSpace=wrap;html=1;strokeColor=none;fillColor=#FFFFFF;" parent="r5Pg7tNitYTx42a6meTz-1" vertex="1">
                    &#xa;                    
                    <mxGeometry x="40" y="140" width="560" height="600" as="geometry"/>
                    &#xa;                
                </mxCell>
                &#xa;                
                <mxCell id="17ri1gyHeIR9pPJ-igV4-1" value="23" style="ellipse;whiteSpace=wrap;html=1;aspect=fixed;strokeColor=#006EAF;strokeWidth=2;fillColor=#1BA1E2;fontColor=#ffffff;" parent="r5Pg7tNitYTx42a6meTz-1" vertex="1">
                    &#xa;                    
                    <mxGeometry x="320" y="160" width="40" height="40" as="geometry"/>
                    &#xa;                
                </mxCell>
                &#xa;                
                <mxCell id="17ri1gyHeIR9pPJ-igV4-2" value="30" style="ellipse;whiteSpace=wrap;html=1;aspect=fixed;strokeColor=#006EAF;strokeWidth=2;fillColor=#1BA1E2;fontColor=#ffffff;" parent="r5Pg7tNitYTx42a6meTz-1" vertex="1">
                    &#xa;                    
                    <mxGeometry x="460" y="220" width="40" height="40" as="geometry"/>
                    &#xa;                
                </mxCell>
                &#xa;                
                <mxCell id="17ri1gyHeIR9pPJ-igV4-3" value="4" style="ellipse;whiteSpace=wrap;html=1;aspect=fixed;strokeColor=#006EAF;strokeWidth=2;fillColor=#1BA1E2;fontColor=#ffffff;" parent="r5Pg7tNitYTx42a6meTz-1" vertex="1">
                    &#xa;                    
                    <mxGeometry x="120" y="280" width="40" height="40" as="geometry"/>
                    &#xa;                
                </mxCell>
                &#xa;                
                <mxCell id="17ri1gyHeIR9pPJ-igV4-4" value="15" style="ellipse;whiteSpace=wrap;html=1;aspect=fixed;strokeColor=#FF8000;strokeWidth=2;fillColor=#1BA1E2;fontColor=#ffffff;" parent="r5Pg7tNitYTx42a6meTz-1" vertex="1">
                    &#xa;                    
                    <mxGeometry x="240" y="280" width="40" height="40" as="geometry"/>
                    &#xa;                
                </mxCell>
                &#xa;                
                <mxCell id="17ri1gyHeIR9pPJ-igV4-5" value="11" style="ellipse;whiteSpace=wrap;html=1;aspect=fixed;strokeColor=#006EAF;strokeWidth=2;fillColor=#1BA1E2;fontColor=#ffffff;" parent="r5Pg7tNitYTx42a6meTz-1" vertex="1">
                    &#xa;                    
                    <mxGeometry x="190" y="340" width="40" height="40" as="geometry"/>
                    &#xa;                
                </mxCell>
                &#xa;                
                <mxCell id="17ri1gyHeIR9pPJ-igV4-6" value="7" style="ellipse;whiteSpace=wrap;html=1;aspect=fixed;strokeColor=#FF8000;strokeWidth=2;fillColor=#1BA1E2;fontColor=#ffffff;" parent="r5Pg7tNitYTx42a6meTz-1" vertex="1">
                    &#xa;                    
                    <mxGeometry x="180" y="220" width="40" height="40" as="geometry"/>
                    &#xa;                
                </mxCell>
                &#xa;                
                <mxCell id="17ri1gyHeIR9pPJ-igV4-7" value="20" style="ellipse;whiteSpace=wrap;html=1;aspect=fixed;strokeColor=#006EAF;strokeWidth=2;fillColor=#1BA1E2;fontColor=#ffffff;" parent="r5Pg7tNitYTx42a6meTz-1" vertex="1">
                    &#xa;                    
                    <mxGeometry x="290" y="340" width="40" height="40" as="geometry"/>
                    &#xa;                
                </mxCell>
                &#xa;                
                <mxCell id="17ri1gyHeIR9pPJ-igV4-8" value="24" style="ellipse;whiteSpace=wrap;html=1;aspect=fixed;strokeColor=#006EAF;strokeWidth=2;fillColor=#1BA1E2;fontColor=#ffffff;" parent="r5Pg7tNitYTx42a6meTz-1" vertex="1">
                    &#xa;                    
                    <mxGeometry x="400" y="280" width="40" height="40" as="geometry"/>
                    &#xa;                
                </mxCell>
                &#xa;                
                <mxCell id="17ri1gyHeIR9pPJ-igV4-9" value="34" style="ellipse;whiteSpace=wrap;html=1;aspect=fixed;strokeColor=#006EAF;strokeWidth=2;fillColor=#1BA1E2;fontColor=#ffffff;" parent="r5Pg7tNitYTx42a6meTz-1" vertex="1">
                    &#xa;                    
                    <mxGeometry x="520" y="280" width="40" height="40" as="geometry"/>
                    &#xa;                
                </mxCell>
                &#xa;                
                <mxCell id="17ri1gyHeIR9pPJ-igV4-10" value="" style="endArrow=none;html=1;strokeColor=#000000;strokeWidth=2;" parent="r5Pg7tNitYTx42a6meTz-1" source="17ri1gyHeIR9pPJ-igV4-6" target="17ri1gyHeIR9pPJ-igV4-1" edge="1">
                    &#xa;                    
                    <mxGeometry width="50" height="50" relative="1" as="geometry">
                        &#xa;                        
                        <mxPoint x="234.14213562373106" y="185.85786437626894" as="sourcePoint"/>
                        &#xa;                        
                        <mxPoint x="325.85786437626894" y="134.14213562373106" as="targetPoint"/>
                        &#xa;                    
                    </mxGeometry>
                    &#xa;                
                </mxCell>
                &#xa;                
                <mxCell id="17ri1gyHeIR9pPJ-igV4-11" value="" style="endArrow=none;html=1;strokeColor=#000000;strokeWidth=2;" parent="r5Pg7tNitYTx42a6meTz-1" source="17ri1gyHeIR9pPJ-igV4-1" target="17ri1gyHeIR9pPJ-igV4-2" edge="1">
                    &#xa;                    
                    <mxGeometry width="50" height="50" relative="1" as="geometry">
                        &#xa;                        
                        <mxPoint x="244.14213562373106" y="195.85786437626894" as="sourcePoint"/>
                        &#xa;                        
                        <mxPoint x="335.85786437626894" y="144.14213562373106" as="targetPoint"/>
                        &#xa;                    
                    </mxGeometry>
                    &#xa;                
                </mxCell>
                &#xa;                
                <mxCell id="17ri1gyHeIR9pPJ-igV4-12" value="" style="endArrow=none;html=1;strokeColor=#000000;strokeWidth=2;" parent="r5Pg7tNitYTx42a6meTz-1" source="17ri1gyHeIR9pPJ-igV4-4" target="17ri1gyHeIR9pPJ-igV4-7" edge="1">
                    &#xa;                    
                    <mxGeometry width="50" height="50" relative="1" as="geometry">
                        &#xa;                        
                        <mxPoint x="254.14213562373106" y="205.85786437626894" as="sourcePoint"/>
                        &#xa;                        
                        <mxPoint x="345.85786437626894" y="154.14213562373106" as="targetPoint"/>
                        &#xa;                    
                    </mxGeometry>
                    &#xa;                
                </mxCell>
                &#xa;                
                <mxCell id="17ri1gyHeIR9pPJ-igV4-13" value="" style="endArrow=none;html=1;strokeColor=#000000;strokeWidth=2;" parent="r5Pg7tNitYTx42a6meTz-1" source="17ri1gyHeIR9pPJ-igV4-5" target="17ri1gyHeIR9pPJ-igV4-4" edge="1">
                    &#xa;                    
                    <mxGeometry width="50" height="50" relative="1" as="geometry">
                        &#xa;                        
                        <mxPoint x="264.14213562373106" y="215.85786437626894" as="sourcePoint"/>
                        &#xa;                        
                        <mxPoint x="355.85786437626894" y="164.14213562373106" as="targetPoint"/>
                        &#xa;                    
                    </mxGeometry>
                    &#xa;                
                </mxCell>
                &#xa;                
                <mxCell id="17ri1gyHeIR9pPJ-igV4-14" value="" style="endArrow=none;html=1;strokeColor=#000000;strokeWidth=2;" parent="r5Pg7tNitYTx42a6meTz-1" source="17ri1gyHeIR9pPJ-igV4-3" target="17ri1gyHeIR9pPJ-igV4-6" edge="1">
                    &#xa;                    
                    <mxGeometry width="50" height="50" relative="1" as="geometry">
                        &#xa;                        
                        <mxPoint x="274.14213562373106" y="225.85786437626894" as="sourcePoint"/>
                        &#xa;                        
                        <mxPoint x="365.85786437626894" y="174.14213562373106" as="targetPoint"/>
                        &#xa;                    
                    </mxGeometry>
                    &#xa;                
                </mxCell>
                &#xa;                
                <mxCell id="17ri1gyHeIR9pPJ-igV4-15" value="" style="endArrow=none;html=1;strokeColor=#000000;strokeWidth=2;" parent="r5Pg7tNitYTx42a6meTz-1" source="17ri1gyHeIR9pPJ-igV4-4" target="17ri1gyHeIR9pPJ-igV4-6" edge="1">
                    &#xa;                    
                    <mxGeometry width="50" height="50" relative="1" as="geometry">
                        &#xa;                        
                        <mxPoint x="284.14213562373106" y="235.85786437626894" as="sourcePoint"/>
                        &#xa;                        
                        <mxPoint x="375.85786437626894" y="184.14213562373106" as="targetPoint"/>
                        &#xa;                    
                    </mxGeometry>
                    &#xa;                
                </mxCell>
                &#xa;                
                <mxCell id="17ri1gyHeIR9pPJ-igV4-16" value="" style="endArrow=none;html=1;strokeColor=#000000;strokeWidth=2;" parent="r5Pg7tNitYTx42a6meTz-1" source="17ri1gyHeIR9pPJ-igV4-9" target="17ri1gyHeIR9pPJ-igV4-2" edge="1">
                    &#xa;                    
                    <mxGeometry width="50" height="50" relative="1" as="geometry">
                        &#xa;                        
                        <mxPoint x="294.14213562373106" y="245.85786437626894" as="sourcePoint"/>
                        &#xa;                        
                        <mxPoint x="385.85786437626894" y="194.14213562373106" as="targetPoint"/>
                        &#xa;                    
                    </mxGeometry>
                    &#xa;                
                </mxCell>
                &#xa;                
                <mxCell id="17ri1gyHeIR9pPJ-igV4-17" value="" style="endArrow=none;html=1;strokeColor=#000000;strokeWidth=2;" parent="r5Pg7tNitYTx42a6meTz-1" source="17ri1gyHeIR9pPJ-igV4-8" target="17ri1gyHeIR9pPJ-igV4-2" edge="1">
                    &#xa;                    
                    <mxGeometry width="50" height="50" relative="1" as="geometry">
                        &#xa;                        
                        <mxPoint x="304.14213562373106" y="255.85786437626894" as="sourcePoint"/>
                        &#xa;                        
                        <mxPoint x="395.85786437626894" y="204.14213562373106" as="targetPoint"/>
                        &#xa;                    
                    </mxGeometry>
                    &#xa;                
                </mxCell>
                &#xa;                
                <mxCell id="17ri1gyHeIR9pPJ-igV4-18" value="&lt;b style=&quot;color: rgb(0 , 0 , 0)&quot;&gt;&lt;font style=&quot;font-size: 14px&quot;&gt;x&lt;/font&gt;&lt;/b&gt;" style="text;html=1;strokeColor=none;fillColor=none;align=center;verticalAlign=middle;whiteSpace=wrap;rounded=0;" parent="r5Pg7tNitYTx42a6meTz-1" vertex="1">
                    &#xa;                    
                    <mxGeometry x="140" y="230" width="40" height="20" as="geometry"/>
                    &#xa;                
                </mxCell>
                &#xa;                
                <mxCell id="17ri1gyHeIR9pPJ-igV4-19" value="&lt;b style=&quot;color: rgb(0 , 0 , 0)&quot;&gt;&lt;font style=&quot;font-size: 14px&quot;&gt;y&lt;/font&gt;&lt;/b&gt;" style="text;html=1;strokeColor=none;fillColor=none;align=center;verticalAlign=middle;whiteSpace=wrap;rounded=0;" parent="r5Pg7tNitYTx42a6meTz-1" vertex="1">
                    &#xa;                    
                    <mxGeometry x="200" y="290" width="40" height="20" as="geometry"/>
                    &#xa;                
                </mxCell>
                &#xa;                
                <mxCell id="17ri1gyHeIR9pPJ-igV4-20" value="" style="shape=mxgraph.arrows.jump-in_arrow_2;html=1;verticalLabelPosition=bottom;verticalAlign=top;strokeWidth=2;strokeColor=none;fillColor=#FF8000;rotation=110;" parent="r5Pg7tNitYTx42a6meTz-1" vertex="1">
                    &#xa;                    
                    <mxGeometry x="240" y="224.19" width="38.45" height="65.81" as="geometry"/>
                    &#xa;                
                </mxCell>
                &#xa;                
                <mxCell id="17ri1gyHeIR9pPJ-igV4-21" value="23" style="ellipse;whiteSpace=wrap;html=1;aspect=fixed;strokeColor=#006EAF;strokeWidth=2;fillColor=#1BA1E2;fontColor=#ffffff;" parent="r5Pg7tNitYTx42a6meTz-1" vertex="1">
                    &#xa;                    
                    <mxGeometry x="320" y="500" width="40" height="40" as="geometry"/>
                    &#xa;                
                </mxCell>
                &#xa;                
                <mxCell id="17ri1gyHeIR9pPJ-igV4-22" value="30" style="ellipse;whiteSpace=wrap;html=1;aspect=fixed;strokeColor=#006EAF;strokeWidth=2;fillColor=#1BA1E2;fontColor=#ffffff;" parent="r5Pg7tNitYTx42a6meTz-1" vertex="1">
                    &#xa;                    
                    <mxGeometry x="460" y="560" width="40" height="40" as="geometry"/>
                    &#xa;                
                </mxCell>
                &#xa;                
                <mxCell id="17ri1gyHeIR9pPJ-igV4-23" value="4" style="ellipse;whiteSpace=wrap;html=1;aspect=fixed;strokeColor=#006EAF;strokeWidth=2;fillColor=#1BA1E2;fontColor=#ffffff;" parent="r5Pg7tNitYTx42a6meTz-1" vertex="1">
                    &#xa;                    
                    <mxGeometry x="70" y="680" width="40" height="40" as="geometry"/>
                    &#xa;                
                </mxCell>
                &#xa;                
                <mxCell id="17ri1gyHeIR9pPJ-igV4-24" value="15" style="ellipse;whiteSpace=wrap;html=1;aspect=fixed;strokeColor=#FF8000;strokeWidth=2;fillColor=#1BA1E2;fontColor=#ffffff;" parent="r5Pg7tNitYTx42a6meTz-1" vertex="1">
                    &#xa;                    
                    <mxGeometry x="180" y="560" width="40" height="40" as="geometry"/>
                    &#xa;                
                </mxCell>
                &#xa;                
                <mxCell id="17ri1gyHeIR9pPJ-igV4-25" value="11" style="ellipse;whiteSpace=wrap;html=1;aspect=fixed;strokeColor=#006EAF;strokeWidth=2;fillColor=#1BA1E2;fontColor=#ffffff;" parent="r5Pg7tNitYTx42a6meTz-1" vertex="1">
                    &#xa;                    
                    <mxGeometry x="170" y="680" width="40" height="40" as="geometry"/>
                    &#xa;                
                </mxCell>
                &#xa;                
                <mxCell id="17ri1gyHeIR9pPJ-igV4-26" value="7" style="ellipse;whiteSpace=wrap;html=1;aspect=fixed;strokeColor=#FF8000;strokeWidth=2;fillColor=#1BA1E2;fontColor=#ffffff;" parent="r5Pg7tNitYTx42a6meTz-1" vertex="1">
                    &#xa;                    
                    <mxGeometry x="120" y="620" width="40" height="40" as="geometry"/>
                    &#xa;                
                </mxCell>
                &#xa;                
                <mxCell id="17ri1gyHeIR9pPJ-igV4-27" value="20" style="ellipse;whiteSpace=wrap;html=1;aspect=fixed;strokeColor=#006EAF;strokeWidth=2;fillColor=#1BA1E2;fontColor=#ffffff;" parent="r5Pg7tNitYTx42a6meTz-1" vertex="1">
                    &#xa;                    
                    <mxGeometry x="238.45" y="620" width="40" height="40" as="geometry"/>
                    &#xa;                
                </mxCell>
                &#xa;                
                <mxCell id="17ri1gyHeIR9pPJ-igV4-28" value="24" style="ellipse;whiteSpace=wrap;html=1;aspect=fixed;strokeColor=#006EAF;strokeWidth=2;fillColor=#1BA1E2;fontColor=#ffffff;" parent="r5Pg7tNitYTx42a6meTz-1" vertex="1">
                    &#xa;                    
                    <mxGeometry x="400" y="620" width="40" height="40" as="geometry"/>
                    &#xa;                
                </mxCell>
                &#xa;                
                <mxCell id="17ri1gyHeIR9pPJ-igV4-29" value="34" style="ellipse;whiteSpace=wrap;html=1;aspect=fixed;strokeColor=#006EAF;strokeWidth=2;fillColor=#1BA1E2;fontColor=#ffffff;" parent="r5Pg7tNitYTx42a6meTz-1" vertex="1">
                    &#xa;                    
                    <mxGeometry x="520" y="620" width="40" height="40" as="geometry"/>
                    &#xa;                
                </mxCell>
                &#xa;                
                <mxCell id="17ri1gyHeIR9pPJ-igV4-30" value="" style="endArrow=none;html=1;strokeColor=#000000;strokeWidth=2;" parent="r5Pg7tNitYTx42a6meTz-1" source="17ri1gyHeIR9pPJ-igV4-24" target="17ri1gyHeIR9pPJ-igV4-21" edge="1">
                    &#xa;                    
                    <mxGeometry width="50" height="50" relative="1" as="geometry">
                        &#xa;                        
                        <mxPoint x="234.14213562373106" y="525.8578643762689" as="sourcePoint"/>
                        &#xa;                        
                        <mxPoint x="325.85786437626894" y="474.14213562373106" as="targetPoint"/>
                        &#xa;                    
                    </mxGeometry>
                    &#xa;                
                </mxCell>
                &#xa;                
                <mxCell id="17ri1gyHeIR9pPJ-igV4-31" value="" style="endArrow=none;html=1;strokeColor=#000000;strokeWidth=2;" parent="r5Pg7tNitYTx42a6meTz-1" source="17ri1gyHeIR9pPJ-igV4-21" target="17ri1gyHeIR9pPJ-igV4-22" edge="1">
                    &#xa;                    
                    <mxGeometry width="50" height="50" relative="1" as="geometry">
                        &#xa;                        
                        <mxPoint x="244.14213562373106" y="535.8578643762689" as="sourcePoint"/>
                        &#xa;                        
                        <mxPoint x="335.85786437626894" y="484.14213562373106" as="targetPoint"/>
                        &#xa;                    
                    </mxGeometry>
                    &#xa;                
                </mxCell>
                &#xa;                
                <mxCell id="17ri1gyHeIR9pPJ-igV4-32" value="" style="endArrow=none;html=1;strokeColor=#000000;strokeWidth=2;" parent="r5Pg7tNitYTx42a6meTz-1" source="17ri1gyHeIR9pPJ-igV4-24" target="17ri1gyHeIR9pPJ-igV4-27" edge="1">
                    &#xa;                    
                    <mxGeometry width="50" height="50" relative="1" as="geometry">
                        &#xa;                        
                        <mxPoint x="254.14213562373106" y="545.8578643762689" as="sourcePoint"/>
                        &#xa;                        
                        <mxPoint x="345.85786437626894" y="494.14213562373106" as="targetPoint"/>
                        &#xa;                    
                    </mxGeometry>
                    &#xa;                
                </mxCell>
                &#xa;                
                <mxCell id="17ri1gyHeIR9pPJ-igV4-33" value="" style="endArrow=none;html=1;strokeColor=#000000;strokeWidth=2;" parent="r5Pg7tNitYTx42a6meTz-1" source="17ri1gyHeIR9pPJ-igV4-25" target="17ri1gyHeIR9pPJ-igV4-26" edge="1">
                    &#xa;                    
                    <mxGeometry width="50" height="50" relative="1" as="geometry">
                        &#xa;                        
                        <mxPoint x="264.14213562373106" y="555.8578643762689" as="sourcePoint"/>
                        &#xa;                        
                        <mxPoint x="355.85786437626894" y="504.14213562373106" as="targetPoint"/>
                        &#xa;                    
                    </mxGeometry>
                    &#xa;                
                </mxCell>
                &#xa;                
                <mxCell id="17ri1gyHeIR9pPJ-igV4-34" value="" style="endArrow=none;html=1;strokeColor=#000000;strokeWidth=2;" parent="r5Pg7tNitYTx42a6meTz-1" source="17ri1gyHeIR9pPJ-igV4-23" target="17ri1gyHeIR9pPJ-igV4-26" edge="1">
                    &#xa;                    
                    <mxGeometry width="50" height="50" relative="1" as="geometry">
                        &#xa;                        
                        <mxPoint x="274.14213562373106" y="565.8578643762689" as="sourcePoint"/>
                        &#xa;                        
                        <mxPoint x="365.85786437626894" y="514.1421356237311" as="targetPoint"/>
                        &#xa;                    
                    </mxGeometry>
                    &#xa;                
                </mxCell>
                &#xa;                
                <mxCell id="17ri1gyHeIR9pPJ-igV4-35" value="" style="endArrow=none;html=1;strokeColor=#000000;strokeWidth=2;" parent="r5Pg7tNitYTx42a6meTz-1" source="17ri1gyHeIR9pPJ-igV4-24" target="17ri1gyHeIR9pPJ-igV4-26" edge="1">
                    &#xa;                    
                    <mxGeometry width="50" height="50" relative="1" as="geometry">
                        &#xa;                        
                        <mxPoint x="284.14213562373106" y="575.8578643762689" as="sourcePoint"/>
                        &#xa;                        
                        <mxPoint x="375.85786437626894" y="524.1421356237311" as="targetPoint"/>
                        &#xa;                    
                    </mxGeometry>
                    &#xa;                
                </mxCell>
                &#xa;                
                <mxCell id="17ri1gyHeIR9pPJ-igV4-36" value="" style="endArrow=none;html=1;strokeColor=#000000;strokeWidth=2;" parent="r5Pg7tNitYTx42a6meTz-1" source="17ri1gyHeIR9pPJ-igV4-29" target="17ri1gyHeIR9pPJ-igV4-22" edge="1">
                    &#xa;                    
                    <mxGeometry width="50" height="50" relative="1" as="geometry">
                        &#xa;                        
                        <mxPoint x="294.14213562373106" y="585.8578643762689" as="sourcePoint"/>
                        &#xa;                        
                        <mxPoint x="385.85786437626894" y="534.1421356237311" as="targetPoint"/>
                        &#xa;                    
                    </mxGeometry>
                    &#xa;                
                </mxCell>
                &#xa;                
                <mxCell id="17ri1gyHeIR9pPJ-igV4-37" value="" style="endArrow=none;html=1;strokeColor=#000000;strokeWidth=2;" parent="r5Pg7tNitYTx42a6meTz-1" source="17ri1gyHeIR9pPJ-igV4-28" target="17ri1gyHeIR9pPJ-igV4-22" edge="1">
                    &#xa;                    
                    <mxGeometry width="50" height="50" relative="1" as="geometry">
                        &#xa;                        
                        <mxPoint x="304.14213562373106" y="595.8578643762689" as="sourcePoint"/>
                        &#xa;                        
                        <mxPoint x="395.85786437626894" y="544.1421356237311" as="targetPoint"/>
                        &#xa;                    
                    </mxGeometry>
                    &#xa;                
                </mxCell>
                &#xa;                
                <mxCell id="17ri1gyHeIR9pPJ-igV4-38" value="&lt;b style=&quot;color: rgb(0 , 0 , 0)&quot;&gt;&lt;font style=&quot;font-size: 14px&quot;&gt;x&lt;/font&gt;&lt;/b&gt;" style="text;html=1;strokeColor=none;fillColor=none;align=center;verticalAlign=middle;whiteSpace=wrap;rounded=0;" parent="r5Pg7tNitYTx42a6meTz-1" vertex="1">
                    &#xa;                    
                    <mxGeometry x="80" y="630" width="40" height="20" as="geometry"/>
                    &#xa;                
                </mxCell>
                &#xa;                
                <mxCell id="17ri1gyHeIR9pPJ-igV4-39" value="&lt;b style=&quot;color: rgb(0 , 0 , 0)&quot;&gt;&lt;font style=&quot;font-size: 14px&quot;&gt;y&lt;/font&gt;&lt;/b&gt;" style="text;html=1;strokeColor=none;fillColor=none;align=center;verticalAlign=middle;whiteSpace=wrap;rounded=0;" parent="r5Pg7tNitYTx42a6meTz-1" vertex="1">
                    &#xa;                    
                    <mxGeometry x="140" y="570" width="40" height="20" as="geometry"/>
                    &#xa;                
                </mxCell>
                &#xa;                
                <mxCell id="17ri1gyHeIR9pPJ-igV4-41" value="" style="html=1;shadow=0;dashed=0;align=center;verticalAlign=middle;shape=mxgraph.arrows2.arrow;dy=0.45;dx=30.5;notch=0;strokeColor=none;fillColor=#FF9933;rotation=90;" parent="r5Pg7tNitYTx42a6meTz-1" vertex="1">
                    &#xa;                    
                    <mxGeometry x="315" y="430" width="50" height="40" as="geometry"/>
                    &#xa;                
                </mxCell>
                &#xa;                
                <mxCell id="17ri1gyHeIR9pPJ-igV4-42" value="&lt;b style=&quot;color: rgb(0 , 0 , 0)&quot;&gt;&lt;font style=&quot;font-size: 14px&quot;&gt;Left Rotate&lt;/font&gt;&lt;/b&gt;" style="text;html=1;strokeColor=none;fillColor=none;align=center;verticalAlign=middle;whiteSpace=wrap;rounded=0;" parent="r5Pg7tNitYTx42a6meTz-1" vertex="1">
                    &#xa;                    
                    <mxGeometry x="300" y="400" width="80" height="20" as="geometry"/>
                    &#xa;                
                </mxCell>
                &#xa;            
            </root>
            &#xa;        
        </mxGraphModel>
        &#xa;    
    </diagram>
    <diagram name="right_rotate" id="z2ytX8kydFKeb37spOGS">
        &#xa;        &#xa;        &#xa;        &#xa;        &#xa;        
        <mxGraphModel dx="1705" dy="844" grid="1" gridSize="10" guides="1" tooltips="1" connect="1" arrows="1" fold="1" page="1" pageScale="1" pageWidth="850" pageHeight="1100" math="0" shadow="0">
            &#xa;            &#xa;            &#xa;            &#xa;            &#xa;            
            <root>
                &#xa;                &#xa;                &#xa;                &#xa;                &#xa;                
                <mxCell id="7V_6XF6eynMzY0k_5Vll-0"/>
                &#xa;                &#xa;                &#xa;                &#xa;                &#xa;                
                <mxCell id="7V_6XF6eynMzY0k_5Vll-1" parent="7V_6XF6eynMzY0k_5Vll-0"/>
                &#xa;                &#xa;                &#xa;                &#xa;                &#xa;                
                <mxCell id="-2B56lWiw2WIe82ntjri-0" value="" style="rounded=0;whiteSpace=wrap;html=1;strokeColor=none;fillColor=#FFFFFF;" vertex="1" parent="7V_6XF6eynMzY0k_5Vll-1">
                    &#xa;                    &#xa;                    &#xa;                    &#xa;                    &#xa;                    
                    <mxGeometry x="40" y="140" width="560" height="600" as="geometry"/>
                    &#xa;                    &#xa;                    &#xa;                &#xa;                &#xa;                
                </mxCell>
                &#xa;                &#xa;                &#xa;                &#xa;                &#xa;                
                <mxCell id="7V_6XF6eynMzY0k_5Vll-3" value="23" style="ellipse;whiteSpace=wrap;html=1;aspect=fixed;strokeColor=#006EAF;strokeWidth=2;fillColor=#1BA1E2;fontColor=#ffffff;" vertex="1" parent="7V_6XF6eynMzY0k_5Vll-1">
                    &#xa;                    &#xa;                    &#xa;                    &#xa;                    &#xa;                    
                    <mxGeometry x="320" y="500" width="40" height="40" as="geometry"/>
                    &#xa;                    &#xa;                    &#xa;                &#xa;                &#xa;                
                </mxCell>
                &#xa;                &#xa;                &#xa;                &#xa;                &#xa;                
                <mxCell id="7V_6XF6eynMzY0k_5Vll-4" value="30" style="ellipse;whiteSpace=wrap;html=1;aspect=fixed;strokeColor=#006EAF;strokeWidth=2;fillColor=#1BA1E2;fontColor=#ffffff;" vertex="1" parent="7V_6XF6eynMzY0k_5Vll-1">
                    &#xa;                    &#xa;                    &#xa;                    &#xa;                    &#xa;                    
                    <mxGeometry x="460" y="560" width="40" height="40" as="geometry"/>
                    &#xa;                    &#xa;                    &#xa;                &#xa;                &#xa;                
                </mxCell>
                &#xa;                &#xa;                &#xa;                &#xa;                &#xa;                
                <mxCell id="7V_6XF6eynMzY0k_5Vll-5" value="4" style="ellipse;whiteSpace=wrap;html=1;aspect=fixed;strokeColor=#006EAF;strokeWidth=2;fillColor=#1BA1E2;fontColor=#ffffff;" vertex="1" parent="7V_6XF6eynMzY0k_5Vll-1">
                    &#xa;                    &#xa;                    &#xa;                    &#xa;                    &#xa;                    
                    <mxGeometry x="120" y="620" width="40" height="40" as="geometry"/>
                    &#xa;                    &#xa;                    &#xa;                &#xa;                &#xa;                
                </mxCell>
                &#xa;                &#xa;                &#xa;                &#xa;                &#xa;                
                <mxCell id="7V_6XF6eynMzY0k_5Vll-6" value="15" style="ellipse;whiteSpace=wrap;html=1;aspect=fixed;strokeColor=#FF8000;strokeWidth=2;fillColor=#1BA1E2;fontColor=#ffffff;" vertex="1" parent="7V_6XF6eynMzY0k_5Vll-1">
                    &#xa;                    &#xa;                    &#xa;                    &#xa;                    &#xa;                    
                    <mxGeometry x="240" y="620" width="40" height="40" as="geometry"/>
                    &#xa;                    &#xa;                    &#xa;                &#xa;                &#xa;                
                </mxCell>
                &#xa;                &#xa;                &#xa;                &#xa;                &#xa;                
                <mxCell id="7V_6XF6eynMzY0k_5Vll-7" value="11" style="ellipse;whiteSpace=wrap;html=1;aspect=fixed;strokeColor=#006EAF;strokeWidth=2;fillColor=#1BA1E2;fontColor=#ffffff;" vertex="1" parent="7V_6XF6eynMzY0k_5Vll-1">
                    &#xa;                    &#xa;                    &#xa;                    &#xa;                    &#xa;                    
                    <mxGeometry x="190" y="680" width="40" height="40" as="geometry"/>
                    &#xa;                    &#xa;                    &#xa;                &#xa;                &#xa;                
                </mxCell>
                &#xa;                &#xa;                &#xa;                &#xa;                &#xa;                
                <mxCell id="7V_6XF6eynMzY0k_5Vll-8" value="7" style="ellipse;whiteSpace=wrap;html=1;aspect=fixed;strokeColor=#FF8000;strokeWidth=2;fillColor=#1BA1E2;fontColor=#ffffff;" vertex="1" parent="7V_6XF6eynMzY0k_5Vll-1">
                    &#xa;                    &#xa;                    &#xa;                    &#xa;                    &#xa;                    
                    <mxGeometry x="180" y="560" width="40" height="40" as="geometry"/>
                    &#xa;                    &#xa;                    &#xa;                &#xa;                &#xa;                
                </mxCell>
                &#xa;                &#xa;                &#xa;                &#xa;                &#xa;                
                <mxCell id="7V_6XF6eynMzY0k_5Vll-9" value="20" style="ellipse;whiteSpace=wrap;html=1;aspect=fixed;strokeColor=#006EAF;strokeWidth=2;fillColor=#1BA1E2;fontColor=#ffffff;" vertex="1" parent="7V_6XF6eynMzY0k_5Vll-1">
                    &#xa;                    &#xa;                    &#xa;                    &#xa;                    &#xa;                    
                    <mxGeometry x="290" y="680" width="40" height="40" as="geometry"/>
                    &#xa;                    &#xa;                    &#xa;                &#xa;                &#xa;                
                </mxCell>
                &#xa;                &#xa;                &#xa;                &#xa;                &#xa;                
                <mxCell id="7V_6XF6eynMzY0k_5Vll-10" value="24" style="ellipse;whiteSpace=wrap;html=1;aspect=fixed;strokeColor=#006EAF;strokeWidth=2;fillColor=#1BA1E2;fontColor=#ffffff;" vertex="1" parent="7V_6XF6eynMzY0k_5Vll-1">
                    &#xa;                    &#xa;                    &#xa;                    &#xa;                    &#xa;                    
                    <mxGeometry x="400" y="620" width="40" height="40" as="geometry"/>
                    &#xa;                    &#xa;                    &#xa;                &#xa;                &#xa;                
                </mxCell>
                &#xa;                &#xa;                &#xa;                &#xa;                &#xa;                
                <mxCell id="7V_6XF6eynMzY0k_5Vll-11" value="34" style="ellipse;whiteSpace=wrap;html=1;aspect=fixed;strokeColor=#006EAF;strokeWidth=2;fillColor=#1BA1E2;fontColor=#ffffff;" vertex="1" parent="7V_6XF6eynMzY0k_5Vll-1">
                    &#xa;                    &#xa;                    &#xa;                    &#xa;                    &#xa;                    
                    <mxGeometry x="520" y="620" width="40" height="40" as="geometry"/>
                    &#xa;                    &#xa;                    &#xa;                &#xa;                &#xa;                
                </mxCell>
                &#xa;                &#xa;                &#xa;                &#xa;                &#xa;                
                <mxCell id="7V_6XF6eynMzY0k_5Vll-12" value="" style="endArrow=none;html=1;strokeColor=#000000;strokeWidth=2;" edge="1" parent="7V_6XF6eynMzY0k_5Vll-1" source="7V_6XF6eynMzY0k_5Vll-8" target="7V_6XF6eynMzY0k_5Vll-3">
                    &#xa;                    &#xa;                    &#xa;                    &#xa;                    &#xa;                    
                    <mxGeometry width="50" height="50" relative="1" as="geometry">
                        &#xa;                        &#xa;                        &#xa;                        &#xa;                        &#xa;                        
                        <mxPoint x="234.14213562373106" y="525.8578643762689" as="sourcePoint"/>
                        &#xa;                        &#xa;                        &#xa;                        &#xa;                        &#xa;                        
                        <mxPoint x="325.85786437626894" y="474.14213562373106" as="targetPoint"/>
                        &#xa;                        &#xa;                        &#xa;                    &#xa;                    &#xa;                    
                    </mxGeometry>
                    &#xa;                    &#xa;                    &#xa;                &#xa;                &#xa;                
                </mxCell>
                &#xa;                &#xa;                &#xa;                &#xa;                &#xa;                
                <mxCell id="7V_6XF6eynMzY0k_5Vll-13" value="" style="endArrow=none;html=1;strokeColor=#000000;strokeWidth=2;" edge="1" parent="7V_6XF6eynMzY0k_5Vll-1" source="7V_6XF6eynMzY0k_5Vll-3" target="7V_6XF6eynMzY0k_5Vll-4">
                    &#xa;                    &#xa;                    &#xa;                    &#xa;                    &#xa;                    
                    <mxGeometry width="50" height="50" relative="1" as="geometry">
                        &#xa;                        &#xa;                        &#xa;                        &#xa;                        &#xa;                        
                        <mxPoint x="244.14213562373106" y="535.8578643762689" as="sourcePoint"/>
                        &#xa;                        &#xa;                        &#xa;                        &#xa;                        &#xa;                        
                        <mxPoint x="335.85786437626894" y="484.14213562373106" as="targetPoint"/>
                        &#xa;                        &#xa;                        &#xa;                    &#xa;                    &#xa;                    
                    </mxGeometry>
                    &#xa;                    &#xa;                    &#xa;                &#xa;                &#xa;                
                </mxCell>
                &#xa;                &#xa;                &#xa;                &#xa;                &#xa;                
                <mxCell id="7V_6XF6eynMzY0k_5Vll-14" value="" style="endArrow=none;html=1;strokeColor=#000000;strokeWidth=2;" edge="1" parent="7V_6XF6eynMzY0k_5Vll-1" source="7V_6XF6eynMzY0k_5Vll-6" target="7V_6XF6eynMzY0k_5Vll-9">
                    &#xa;                    &#xa;                    &#xa;                    &#xa;                    &#xa;                    
                    <mxGeometry width="50" height="50" relative="1" as="geometry">
                        &#xa;                        &#xa;                        &#xa;                        &#xa;                        &#xa;                        
                        <mxPoint x="254.14213562373106" y="545.8578643762689" as="sourcePoint"/>
                        &#xa;                        &#xa;                        &#xa;                        &#xa;                        &#xa;                        
                        <mxPoint x="345.85786437626894" y="494.14213562373106" as="targetPoint"/>
                        &#xa;                        &#xa;                        &#xa;                    &#xa;                    &#xa;                    
                    </mxGeometry>
                    &#xa;                    &#xa;                    &#xa;                &#xa;                &#xa;                
                </mxCell>
                &#xa;                &#xa;                &#xa;                &#xa;                &#xa;                
                <mxCell id="7V_6XF6eynMzY0k_5Vll-15" value="" style="endArrow=none;html=1;strokeColor=#000000;strokeWidth=2;" edge="1" parent="7V_6XF6eynMzY0k_5Vll-1" source="7V_6XF6eynMzY0k_5Vll-7" target="7V_6XF6eynMzY0k_5Vll-6">
                    &#xa;                    &#xa;                    &#xa;                    &#xa;                    &#xa;                    
                    <mxGeometry width="50" height="50" relative="1" as="geometry">
                        &#xa;                        &#xa;                        &#xa;                        &#xa;                        &#xa;                        
                        <mxPoint x="264.14213562373106" y="555.8578643762689" as="sourcePoint"/>
                        &#xa;                        &#xa;                        &#xa;                        &#xa;                        &#xa;                        
                        <mxPoint x="355.85786437626894" y="504.14213562373106" as="targetPoint"/>
                        &#xa;                        &#xa;                        &#xa;                    &#xa;                    &#xa;                    
                    </mxGeometry>
                    &#xa;                    &#xa;                    &#xa;                &#xa;                &#xa;                
                </mxCell>
                &#xa;                &#xa;                &#xa;                &#xa;                &#xa;                
                <mxCell id="7V_6XF6eynMzY0k_5Vll-16" value="" style="endArrow=none;html=1;strokeColor=#000000;strokeWidth=2;" edge="1" parent="7V_6XF6eynMzY0k_5Vll-1" source="7V_6XF6eynMzY0k_5Vll-5" target="7V_6XF6eynMzY0k_5Vll-8">
                    &#xa;                    &#xa;                    &#xa;                    &#xa;                    &#xa;                    
                    <mxGeometry width="50" height="50" relative="1" as="geometry">
                        &#xa;                        &#xa;                        &#xa;                        &#xa;                        &#xa;                        
                        <mxPoint x="274.14213562373106" y="565.8578643762689" as="sourcePoint"/>
                        &#xa;                        &#xa;                        &#xa;                        &#xa;                        &#xa;                        
                        <mxPoint x="365.85786437626894" y="514.1421356237311" as="targetPoint"/>
                        &#xa;                        &#xa;                        &#xa;                    &#xa;                    &#xa;                    
                    </mxGeometry>
                    &#xa;                    &#xa;                    &#xa;                &#xa;                &#xa;                
                </mxCell>
                &#xa;                &#xa;                &#xa;                &#xa;                &#xa;                
                <mxCell id="7V_6XF6eynMzY0k_5Vll-17" value="" style="endArrow=none;html=1;strokeColor=#000000;strokeWidth=2;" edge="1" parent="7V_6XF6eynMzY0k_5Vll-1" source="7V_6XF6eynMzY0k_5Vll-6" target="7V_6XF6eynMzY0k_5Vll-8">
                    &#xa;                    &#xa;                    &#xa;                    &#xa;                    &#xa;                    
                    <mxGeometry width="50" height="50" relative="1" as="geometry">
                        &#xa;                        &#xa;                        &#xa;                        &#xa;                        &#xa;                        
                        <mxPoint x="284.14213562373106" y="575.8578643762689" as="sourcePoint"/>
                        &#xa;                        &#xa;                        &#xa;                        &#xa;                        &#xa;                        
                        <mxPoint x="375.85786437626894" y="524.1421356237311" as="targetPoint"/>
                        &#xa;                        &#xa;                        &#xa;                    &#xa;                    &#xa;                    
                    </mxGeometry>
                    &#xa;                    &#xa;                    &#xa;                &#xa;                &#xa;                
                </mxCell>
                &#xa;                &#xa;                &#xa;                &#xa;                &#xa;                
                <mxCell id="7V_6XF6eynMzY0k_5Vll-18" value="" style="endArrow=none;html=1;strokeColor=#000000;strokeWidth=2;" edge="1" parent="7V_6XF6eynMzY0k_5Vll-1" source="7V_6XF6eynMzY0k_5Vll-11" target="7V_6XF6eynMzY0k_5Vll-4">
                    &#xa;                    &#xa;                    &#xa;                    &#xa;                    &#xa;                    
                    <mxGeometry width="50" height="50" relative="1" as="geometry">
                        &#xa;                        &#xa;                        &#xa;                        &#xa;                        &#xa;                        
                        <mxPoint x="294.14213562373106" y="585.8578643762689" as="sourcePoint"/>
                        &#xa;                        &#xa;                        &#xa;                        &#xa;                        &#xa;                        
                        <mxPoint x="385.85786437626894" y="534.1421356237311" as="targetPoint"/>
                        &#xa;                        &#xa;                        &#xa;                    &#xa;                    &#xa;                    
                    </mxGeometry>
                    &#xa;                    &#xa;                    &#xa;                &#xa;                &#xa;                
                </mxCell>
                &#xa;                &#xa;                &#xa;                &#xa;                &#xa;                
                <mxCell id="7V_6XF6eynMzY0k_5Vll-19" value="" style="endArrow=none;html=1;strokeColor=#000000;strokeWidth=2;" edge="1" parent="7V_6XF6eynMzY0k_5Vll-1" source="7V_6XF6eynMzY0k_5Vll-10" target="7V_6XF6eynMzY0k_5Vll-4">
                    &#xa;                    &#xa;                    &#xa;                    &#xa;                    &#xa;                    
                    <mxGeometry width="50" height="50" relative="1" as="geometry">
                        &#xa;                        &#xa;                        &#xa;                        &#xa;                        &#xa;                        
                        <mxPoint x="304.14213562373106" y="595.8578643762689" as="sourcePoint"/>
                        &#xa;                        &#xa;                        &#xa;                        &#xa;                        &#xa;                        
                        <mxPoint x="395.85786437626894" y="544.1421356237311" as="targetPoint"/>
                        &#xa;                        &#xa;                        &#xa;                    &#xa;                    &#xa;                    
                    </mxGeometry>
                    &#xa;                    &#xa;                    &#xa;                &#xa;                &#xa;                
                </mxCell>
                &#xa;                &#xa;                &#xa;                &#xa;                &#xa;                
                <mxCell id="7V_6XF6eynMzY0k_5Vll-20" value="&lt;b style=&quot;color: rgb(0 , 0 , 0)&quot;&gt;&lt;font style=&quot;font-size: 14px&quot;&gt;x&lt;/font&gt;&lt;/b&gt;" style="text;html=1;strokeColor=none;fillColor=none;align=center;verticalAlign=middle;whiteSpace=wrap;rounded=0;" vertex="1" parent="7V_6XF6eynMzY0k_5Vll-1">
                    &#xa;                    &#xa;                    &#xa;                    &#xa;                    &#xa;                    
                    <mxGeometry x="280" y="630" width="40" height="20" as="geometry"/>
                    &#xa;                    &#xa;                    &#xa;                &#xa;                &#xa;                
                </mxCell>
                &#xa;                &#xa;                &#xa;                &#xa;                &#xa;                
                <mxCell id="7V_6XF6eynMzY0k_5Vll-21" value="&lt;b style=&quot;color: rgb(0 , 0 , 0)&quot;&gt;&lt;font style=&quot;font-size: 14px&quot;&gt;y&lt;/font&gt;&lt;/b&gt;" style="text;html=1;strokeColor=none;fillColor=none;align=center;verticalAlign=middle;whiteSpace=wrap;rounded=0;" vertex="1" parent="7V_6XF6eynMzY0k_5Vll-1">
                    &#xa;                    &#xa;                    &#xa;                    &#xa;                    &#xa;                    
                    <mxGeometry x="220" y="570" width="40" height="20" as="geometry"/>
                    &#xa;                    &#xa;                    &#xa;                &#xa;                &#xa;                
                </mxCell>
                &#xa;                &#xa;                &#xa;                &#xa;                &#xa;                
                <mxCell id="7V_6XF6eynMzY0k_5Vll-23" value="23" style="ellipse;whiteSpace=wrap;html=1;aspect=fixed;strokeColor=#006EAF;strokeWidth=2;fillColor=#1BA1E2;fontColor=#ffffff;" vertex="1" parent="7V_6XF6eynMzY0k_5Vll-1">
                    &#xa;                    &#xa;                    &#xa;                    &#xa;                    &#xa;                    
                    <mxGeometry x="320" y="160" width="40" height="40" as="geometry"/>
                    &#xa;                    &#xa;                    &#xa;                &#xa;                &#xa;                
                </mxCell>
                &#xa;                &#xa;                &#xa;                &#xa;                &#xa;                
                <mxCell id="7V_6XF6eynMzY0k_5Vll-24" value="30" style="ellipse;whiteSpace=wrap;html=1;aspect=fixed;strokeColor=#006EAF;strokeWidth=2;fillColor=#1BA1E2;fontColor=#ffffff;" vertex="1" parent="7V_6XF6eynMzY0k_5Vll-1">
                    &#xa;                    &#xa;                    &#xa;                    &#xa;                    &#xa;                    
                    <mxGeometry x="460" y="220" width="40" height="40" as="geometry"/>
                    &#xa;                    &#xa;                    &#xa;                &#xa;                &#xa;                
                </mxCell>
                &#xa;                &#xa;                &#xa;                &#xa;                &#xa;                
                <mxCell id="7V_6XF6eynMzY0k_5Vll-25" value="4" style="ellipse;whiteSpace=wrap;html=1;aspect=fixed;strokeColor=#006EAF;strokeWidth=2;fillColor=#1BA1E2;fontColor=#ffffff;" vertex="1" parent="7V_6XF6eynMzY0k_5Vll-1">
                    &#xa;                    &#xa;                    &#xa;                    &#xa;                    &#xa;                    
                    <mxGeometry x="70" y="340" width="40" height="40" as="geometry"/>
                    &#xa;                    &#xa;                    &#xa;                &#xa;                &#xa;                
                </mxCell>
                &#xa;                &#xa;                &#xa;                &#xa;                &#xa;                
                <mxCell id="7V_6XF6eynMzY0k_5Vll-26" value="15" style="ellipse;whiteSpace=wrap;html=1;aspect=fixed;strokeColor=#FF8000;strokeWidth=2;fillColor=#1BA1E2;fontColor=#ffffff;" vertex="1" parent="7V_6XF6eynMzY0k_5Vll-1">
                    &#xa;                    &#xa;                    &#xa;                    &#xa;                    &#xa;                    
                    <mxGeometry x="180" y="220" width="40" height="40" as="geometry"/>
                    &#xa;                    &#xa;                    &#xa;                &#xa;                &#xa;                
                </mxCell>
                &#xa;                &#xa;                &#xa;                &#xa;                &#xa;                
                <mxCell id="7V_6XF6eynMzY0k_5Vll-27" value="11" style="ellipse;whiteSpace=wrap;html=1;aspect=fixed;strokeColor=#006EAF;strokeWidth=2;fillColor=#1BA1E2;fontColor=#ffffff;" vertex="1" parent="7V_6XF6eynMzY0k_5Vll-1">
                    &#xa;                    &#xa;                    &#xa;                    &#xa;                    &#xa;                    
                    <mxGeometry x="170" y="340" width="40" height="40" as="geometry"/>
                    &#xa;                    &#xa;                    &#xa;                &#xa;                &#xa;                
                </mxCell>
                &#xa;                &#xa;                &#xa;                &#xa;                &#xa;                
                <mxCell id="7V_6XF6eynMzY0k_5Vll-28" value="7" style="ellipse;whiteSpace=wrap;html=1;aspect=fixed;strokeColor=#FF8000;strokeWidth=2;fillColor=#1BA1E2;fontColor=#ffffff;" vertex="1" parent="7V_6XF6eynMzY0k_5Vll-1">
                    &#xa;                    &#xa;                    &#xa;                    &#xa;                    &#xa;                    
                    <mxGeometry x="120" y="280" width="40" height="40" as="geometry"/>
                    &#xa;                    &#xa;                    &#xa;                &#xa;                &#xa;                
                </mxCell>
                &#xa;                &#xa;                &#xa;                &#xa;                &#xa;                
                <mxCell id="7V_6XF6eynMzY0k_5Vll-29" value="20" style="ellipse;whiteSpace=wrap;html=1;aspect=fixed;strokeColor=#006EAF;strokeWidth=2;fillColor=#1BA1E2;fontColor=#ffffff;" vertex="1" parent="7V_6XF6eynMzY0k_5Vll-1">
                    &#xa;                    &#xa;                    &#xa;                    &#xa;                    &#xa;                    
                    <mxGeometry x="238.45" y="280" width="40" height="40" as="geometry"/>
                    &#xa;                    &#xa;                    &#xa;                &#xa;                &#xa;                
                </mxCell>
                &#xa;                &#xa;                &#xa;                &#xa;                &#xa;                
                <mxCell id="7V_6XF6eynMzY0k_5Vll-30" value="24" style="ellipse;whiteSpace=wrap;html=1;aspect=fixed;strokeColor=#006EAF;strokeWidth=2;fillColor=#1BA1E2;fontColor=#ffffff;" vertex="1" parent="7V_6XF6eynMzY0k_5Vll-1">
                    &#xa;                    &#xa;                    &#xa;                    &#xa;                    &#xa;                    
                    <mxGeometry x="400" y="280" width="40" height="40" as="geometry"/>
                    &#xa;                    &#xa;                    &#xa;                &#xa;                &#xa;                
                </mxCell>
                &#xa;                &#xa;                &#xa;                &#xa;                &#xa;                
                <mxCell id="7V_6XF6eynMzY0k_5Vll-31" value="34" style="ellipse;whiteSpace=wrap;html=1;aspect=fixed;strokeColor=#006EAF;strokeWidth=2;fillColor=#1BA1E2;fontColor=#ffffff;" vertex="1" parent="7V_6XF6eynMzY0k_5Vll-1">
                    &#xa;                    &#xa;                    &#xa;                    &#xa;                    &#xa;                    
                    <mxGeometry x="520" y="280" width="40" height="40" as="geometry"/>
                    &#xa;                    &#xa;                    &#xa;                &#xa;                &#xa;                
                </mxCell>
                &#xa;                &#xa;                &#xa;                &#xa;                &#xa;                
                <mxCell id="7V_6XF6eynMzY0k_5Vll-32" value="" style="endArrow=none;html=1;strokeColor=#000000;strokeWidth=2;" edge="1" parent="7V_6XF6eynMzY0k_5Vll-1" source="7V_6XF6eynMzY0k_5Vll-26" target="7V_6XF6eynMzY0k_5Vll-23">
                    &#xa;                    &#xa;                    &#xa;                    &#xa;                    &#xa;                    
                    <mxGeometry width="50" height="50" relative="1" as="geometry">
                        &#xa;                        &#xa;                        &#xa;                        &#xa;                        &#xa;                        
                        <mxPoint x="234.14213562373106" y="185.85786437626894" as="sourcePoint"/>
                        &#xa;                        &#xa;                        &#xa;                        &#xa;                        &#xa;                        
                        <mxPoint x="325.85786437626894" y="134.14213562373106" as="targetPoint"/>
                        &#xa;                        &#xa;                        &#xa;                    &#xa;                    &#xa;                    
                    </mxGeometry>
                    &#xa;                    &#xa;                    &#xa;                &#xa;                &#xa;                
                </mxCell>
                &#xa;                &#xa;                &#xa;                &#xa;                &#xa;                
                <mxCell id="7V_6XF6eynMzY0k_5Vll-33" value="" style="endArrow=none;html=1;strokeColor=#000000;strokeWidth=2;" edge="1" parent="7V_6XF6eynMzY0k_5Vll-1" source="7V_6XF6eynMzY0k_5Vll-23" target="7V_6XF6eynMzY0k_5Vll-24">
                    &#xa;                    &#xa;                    &#xa;                    &#xa;                    &#xa;                    
                    <mxGeometry width="50" height="50" relative="1" as="geometry">
                        &#xa;                        &#xa;                        &#xa;                        &#xa;                        &#xa;                        
                        <mxPoint x="244.14213562373106" y="195.85786437626894" as="sourcePoint"/>
                        &#xa;                        &#xa;                        &#xa;                        &#xa;                        &#xa;                        
                        <mxPoint x="335.85786437626894" y="144.14213562373106" as="targetPoint"/>
                        &#xa;                        &#xa;                        &#xa;                    &#xa;                    &#xa;                    
                    </mxGeometry>
                    &#xa;                    &#xa;                    &#xa;                &#xa;                &#xa;                
                </mxCell>
                &#xa;                &#xa;                &#xa;                &#xa;                &#xa;                
                <mxCell id="7V_6XF6eynMzY0k_5Vll-34" value="" style="endArrow=none;html=1;strokeColor=#000000;strokeWidth=2;" edge="1" parent="7V_6XF6eynMzY0k_5Vll-1" source="7V_6XF6eynMzY0k_5Vll-26" target="7V_6XF6eynMzY0k_5Vll-29">
                    &#xa;                    &#xa;                    &#xa;                    &#xa;                    &#xa;                    
                    <mxGeometry width="50" height="50" relative="1" as="geometry">
                        &#xa;                        &#xa;                        &#xa;                        &#xa;                        &#xa;                        
                        <mxPoint x="254.14213562373106" y="205.85786437626894" as="sourcePoint"/>
                        &#xa;                        &#xa;                        &#xa;                        &#xa;                        &#xa;                        
                        <mxPoint x="345.85786437626894" y="154.14213562373106" as="targetPoint"/>
                        &#xa;                        &#xa;                        &#xa;                    &#xa;                    &#xa;                    
                    </mxGeometry>
                    &#xa;                    &#xa;                    &#xa;                &#xa;                &#xa;                
                </mxCell>
                &#xa;                &#xa;                &#xa;                &#xa;                &#xa;                
                <mxCell id="7V_6XF6eynMzY0k_5Vll-35" value="" style="endArrow=none;html=1;strokeColor=#000000;strokeWidth=2;" edge="1" parent="7V_6XF6eynMzY0k_5Vll-1" source="7V_6XF6eynMzY0k_5Vll-27" target="7V_6XF6eynMzY0k_5Vll-28">
                    &#xa;                    &#xa;                    &#xa;                    &#xa;                    &#xa;                    
                    <mxGeometry width="50" height="50" relative="1" as="geometry">
                        &#xa;                        &#xa;                        &#xa;                        &#xa;                        &#xa;                        
                        <mxPoint x="264.14213562373106" y="215.85786437626894" as="sourcePoint"/>
                        &#xa;                        &#xa;                        &#xa;                        &#xa;                        &#xa;                        
                        <mxPoint x="355.85786437626894" y="164.14213562373106" as="targetPoint"/>
                        &#xa;                        &#xa;                        &#xa;                    &#xa;                    &#xa;                    
                    </mxGeometry>
                    &#xa;                    &#xa;                    &#xa;                &#xa;                &#xa;                
                </mxCell>
                &#xa;                &#xa;                &#xa;                &#xa;                &#xa;                
                <mxCell id="7V_6XF6eynMzY0k_5Vll-36" value="" style="endArrow=none;html=1;strokeColor=#000000;strokeWidth=2;" edge="1" parent="7V_6XF6eynMzY0k_5Vll-1" source="7V_6XF6eynMzY0k_5Vll-25" target="7V_6XF6eynMzY0k_5Vll-28">
                    &#xa;                    &#xa;                    &#xa;                    &#xa;                    &#xa;                    
                    <mxGeometry width="50" height="50" relative="1" as="geometry">
                        &#xa;                        &#xa;                        &#xa;                        &#xa;                        &#xa;                        
                        <mxPoint x="274.14213562373106" y="225.85786437626894" as="sourcePoint"/>
                        &#xa;                        &#xa;                        &#xa;                        &#xa;                        &#xa;                        
                        <mxPoint x="365.85786437626894" y="174.14213562373106" as="targetPoint"/>
                        &#xa;                        &#xa;                        &#xa;                    &#xa;                    &#xa;                    
                    </mxGeometry>
                    &#xa;                    &#xa;                    &#xa;                &#xa;                &#xa;                
                </mxCell>
                &#xa;                &#xa;                &#xa;                &#xa;                &#xa;                
                <mxCell id="7V_6XF6eynMzY0k_5Vll-37" value="" style="endArrow=none;html=1;strokeColor=#000000;strokeWidth=2;" edge="1" parent="7V_6XF6eynMzY0k_5Vll-1" source="7V_6XF6eynMzY0k_5Vll-26" target="7V_6XF6eynMzY0k_5Vll-28">
                    &#xa;                    &#xa;                    &#xa;                    &#xa;                    &#xa;                    
                    <mxGeometry width="50" height="50" relative="1" as="geometry">
                        &#xa;                        &#xa;                        &#xa;                        &#xa;                        &#xa;                        
                        <mxPoint x="284.14213562373106" y="235.85786437626894" as="sourcePoint"/>
                        &#xa;                        &#xa;                        &#xa;                        &#xa;                        &#xa;                        
                        <mxPoint x="375.85786437626894" y="184.14213562373106" as="targetPoint"/>
                        &#xa;                        &#xa;                        &#xa;                    &#xa;                    &#xa;                    
                    </mxGeometry>
                    &#xa;                    &#xa;                    &#xa;                &#xa;                &#xa;                
                </mxCell>
                &#xa;                &#xa;                &#xa;                &#xa;                &#xa;                
                <mxCell id="7V_6XF6eynMzY0k_5Vll-38" value="" style="endArrow=none;html=1;strokeColor=#000000;strokeWidth=2;" edge="1" parent="7V_6XF6eynMzY0k_5Vll-1" source="7V_6XF6eynMzY0k_5Vll-31" target="7V_6XF6eynMzY0k_5Vll-24">
                    &#xa;                    &#xa;                    &#xa;                    &#xa;                    &#xa;                    
                    <mxGeometry width="50" height="50" relative="1" as="geometry">
                        &#xa;                        &#xa;                        &#xa;                        &#xa;                        &#xa;                        
                        <mxPoint x="294.14213562373106" y="245.85786437626894" as="sourcePoint"/>
                        &#xa;                        &#xa;                        &#xa;                        &#xa;                        &#xa;                        
                        <mxPoint x="385.85786437626894" y="194.14213562373106" as="targetPoint"/>
                        &#xa;                        &#xa;                        &#xa;                    &#xa;                    &#xa;                    
                    </mxGeometry>
                    &#xa;                    &#xa;                    &#xa;                &#xa;                &#xa;                
                </mxCell>
                &#xa;                &#xa;                &#xa;                &#xa;                &#xa;                
                <mxCell id="7V_6XF6eynMzY0k_5Vll-39" value="" style="endArrow=none;html=1;strokeColor=#000000;strokeWidth=2;" edge="1" parent="7V_6XF6eynMzY0k_5Vll-1" source="7V_6XF6eynMzY0k_5Vll-30" target="7V_6XF6eynMzY0k_5Vll-24">
                    &#xa;                    &#xa;                    &#xa;                    &#xa;                    &#xa;                    
                    <mxGeometry width="50" height="50" relative="1" as="geometry">
                        &#xa;                        &#xa;                        &#xa;                        &#xa;                        &#xa;                        
                        <mxPoint x="304.14213562373106" y="255.85786437626894" as="sourcePoint"/>
                        &#xa;                        &#xa;                        &#xa;                        &#xa;                        &#xa;                        
                        <mxPoint x="395.85786437626894" y="204.14213562373106" as="targetPoint"/>
                        &#xa;                        &#xa;                        &#xa;                    &#xa;                    &#xa;                    
                    </mxGeometry>
                    &#xa;                    &#xa;                    &#xa;                &#xa;                &#xa;                
                </mxCell>
                &#xa;                &#xa;                &#xa;                &#xa;                &#xa;                
                <mxCell id="7V_6XF6eynMzY0k_5Vll-40" value="&lt;b style=&quot;color: rgb(0 , 0 , 0)&quot;&gt;&lt;font style=&quot;font-size: 14px&quot;&gt;x&lt;/font&gt;&lt;/b&gt;" style="text;html=1;strokeColor=none;fillColor=none;align=center;verticalAlign=middle;whiteSpace=wrap;rounded=0;" vertex="1" parent="7V_6XF6eynMzY0k_5Vll-1">
                    &#xa;                    &#xa;                    &#xa;                    &#xa;                    &#xa;                    
                    <mxGeometry x="220" y="230" width="40" height="20" as="geometry"/>
                    &#xa;                    &#xa;                    &#xa;                &#xa;                &#xa;                
                </mxCell>
                &#xa;                &#xa;                &#xa;                &#xa;                &#xa;                
                <mxCell id="7V_6XF6eynMzY0k_5Vll-41" value="&lt;b style=&quot;color: rgb(0 , 0 , 0)&quot;&gt;&lt;font style=&quot;font-size: 14px&quot;&gt;y&lt;/font&gt;&lt;/b&gt;" style="text;html=1;strokeColor=none;fillColor=none;align=center;verticalAlign=middle;whiteSpace=wrap;rounded=0;" vertex="1" parent="7V_6XF6eynMzY0k_5Vll-1">
                    &#xa;                    &#xa;                    &#xa;                    &#xa;                    &#xa;                    
                    <mxGeometry x="160" y="290" width="40" height="20" as="geometry"/>
                    &#xa;                    &#xa;                    &#xa;                &#xa;                &#xa;                
                </mxCell>
                &#xa;                &#xa;                &#xa;                &#xa;                &#xa;                
                <mxCell id="7V_6XF6eynMzY0k_5Vll-42" value="" style="html=1;shadow=0;dashed=0;align=center;verticalAlign=middle;shape=mxgraph.arrows2.arrow;dy=0.45;dx=30.5;notch=0;strokeColor=none;fillColor=#FF9933;rotation=90;" vertex="1" parent="7V_6XF6eynMzY0k_5Vll-1">
                    &#xa;                    &#xa;                    &#xa;                    &#xa;                    &#xa;                    
                    <mxGeometry x="315" y="430" width="50" height="40" as="geometry"/>
                    &#xa;                    &#xa;                    &#xa;                &#xa;                &#xa;                
                </mxCell>
                &#xa;                &#xa;                &#xa;                &#xa;                &#xa;                
                <mxCell id="7V_6XF6eynMzY0k_5Vll-43" value="&lt;b style=&quot;color: rgb(0 , 0 , 0)&quot;&gt;&lt;font style=&quot;font-size: 14px&quot;&gt;Right Rotate&lt;/font&gt;&lt;/b&gt;" style="text;html=1;strokeColor=none;fillColor=none;align=center;verticalAlign=middle;whiteSpace=wrap;rounded=0;" vertex="1" parent="7V_6XF6eynMzY0k_5Vll-1">
                    &#xa;                    &#xa;                    &#xa;                    &#xa;                    &#xa;                    
                    <mxGeometry x="295" y="400" width="90" height="20" as="geometry"/>
                    &#xa;                    &#xa;                    &#xa;                &#xa;                &#xa;                
                </mxCell>
                &#xa;                &#xa;                &#xa;                &#xa;                &#xa;                
                <mxCell id="7V_6XF6eynMzY0k_5Vll-44" value="" style="shape=mxgraph.arrows.jump-in_arrow_1;html=1;verticalLabelPosition=bottom;verticalAlign=top;strokeWidth=2;strokeColor=none;fillColor=#FF8000;rotation=-105;" vertex="1" parent="7V_6XF6eynMzY0k_5Vll-1">
                    &#xa;                    &#xa;                    &#xa;                    &#xa;                    &#xa;                    
                    <mxGeometry x="130" y="220" width="30" height="50" as="geometry"/>
                    &#xa;                    &#xa;                    &#xa;                &#xa;                &#xa;                
                </mxCell>
                &#xa;                &#xa;                &#xa;            &#xa;            &#xa;            
            </root>
            &#xa;            &#xa;            &#xa;        &#xa;        &#xa;        
        </mxGraphModel>
        &#xa;        &#xa;        &#xa;    &#xa;    &#xa;    
    </diagram>
</mxfile>